<?xml version="1.0" ?><!DOCTYPE svg  PUBLIC '-//W3C//DTD SVG 1.1//EN'  'http://www.w3.org/Graphics/SVG/1.1/DTD/svg11.dtd'><svg height="512px" style="enable-background:new 0 0 512 512;" version="1.1" viewBox="0 0 512 512" width="512px" xml:space="preserve" xmlns="http://www.w3.org/2000/svg" xmlns:xlink="http://www.w3.org/1999/xlink"><g id="_x31_24"><g><g><g><g><g><g><path d="M386.306,116.403c-0.051,0.392,0.705,0.25,0.845,0.311         C386.956,116.022,386.107,116.431,386.306,116.403z" style="fill:#202020;"/><path d="M383.186,110.948l0.322-0.049c0,0-0.263-0.102-0.526-0.204         c-0.271-0.083-0.543-0.165-0.543-0.165s0.19,0.099,0.382,0.197C383.007,110.831,383.186,110.948,383.186,110.948z" style="fill:#202020;"/><path d="M379.862,106.832c-0.208,0.657,0.143,0.921,0.64,1.16c0.461,0.263,1.081,0.521,1.176,1.045         l-0.142,0.303c0,0,0.271-0.074,0.543-0.147c0.276-0.066,0.553-0.133,0.553-0.133         C381.809,108.124,380.238,107.61,379.862,106.832z" style="fill:#202020;"/><path d="M378.707,102.787c-0.035,0.555-0.854,0.05,0.644,0.509c-0.04-0.088-0.044-0.127-0.063-0.186         C379.159,103.051,378.987,102.965,378.707,102.787z" style="fill:#202020;"/><path d="M379.287,103.11C379.901,103.422,379.097,102.517,379.287,103.11L379.287,103.11z" style="fill:#202020;"/><path d="M376.281,102.164c-0.001-0.021,0.996-0.133,0.996-0.133c-0.073-0.348-0.845-0.689-0.485-0.793         C375.78,101.206,375.922,101.563,376.281,102.164z" style="fill:#202020;"/><path d="M375.241,102.87l0.469-0.076C375.671,102.654,375.563,102.581,375.241,102.87z" style="fill:#202020;"/><path d="M376.729,102.688c0,0-0.255,0.017-0.51,0.034c-0.254,0.036-0.509,0.072-0.509,0.072         c0.066,0.235-0.05,0.638,0.455-0.028C375.981,103.112,376.259,102.804,376.729,102.688z" style="fill:#202020;"/><path d="M377.164,103.059c0.357,0.428,0.801,0.837-0.118,0.928c0.738,0.213,1.153,0.14,1.206-0.096         C378.299,103.676,377.971,103.258,377.164,103.059z" style="fill:#202020;"/><path d="M378.822,107.73c0,0,0.154,0.592,0.144,0.598l0.601-0.042         C379.281,108.294,379.062,107.382,378.822,107.73z" style="fill:#202020;"/><path d="M371.181,100.836c-0.037,0.276,0.195,0.737,0.239,1.09l0.431-0.317         C371.629,101.42,371.21,101.246,371.181,100.836z" style="fill:#202020;"/><path d="M371.42,101.927l-0.645,0.475C371.351,102.457,371.456,102.232,371.42,101.927z" style="fill:#202020;"/><path d="M374.771,104.239c0,0,0.398-0.154,0.797-0.309c0.413-0.161,0.835-0.255,0.835-0.254         c0,0-0.491,0.077-0.969,0.226c-0.477,0.136-0.92,0.287-0.92,0.287L374.771,104.239z" style="fill:#202020;"/><polygon points="368.72,100.802 369.085,100.163 368.435,101.128        " style="fill:#202020;"/><path d="M367.088,100.914c0.27-0.53-0.371-0.897-0.085-1.223c-0.443,0.095-0.822,0.55-1.163,0.959         C366.202,100.421,366.588,100.48,367.088,100.914z" style="fill:#202020;"/><path d="M365.268,101.246c0.181-0.127,0.368-0.354,0.572-0.596         C365.647,100.772,365.458,100.948,365.268,101.246z" style="fill:#202020;"/><path d="M369.678,102.265c-0.05-0.167-0.146-0.604-0.507-0.789l0.253,0.777         C369.502,102.257,369.589,102.261,369.678,102.265z" style="fill:#202020;"/><path d="M369.434,102.278l-0.01-0.025c-0.274-0.021-0.465-0.037-0.547-0.043         C368.947,102.219,369.114,102.239,369.434,102.278z" style="fill:#202020;"/><path d="M369.742,102.268c-0.023-0.001-0.041-0.002-0.064-0.003         C369.702,102.341,369.717,102.367,369.742,102.268z" style="fill:#202020;"/><path d="M372.669,103.232c-0.263,0.204-0.673,0.409-0.833,0.661c-0.134,0.258-0.189,0.527,0.261,0.877         C372.45,104.253,371.885,103.848,372.669,103.232z" style="fill:#202020;"/><path d="M370.057,103.24l0.685,0.178c-0.014-0.205-0.138-0.504,0.05-0.721L370.057,103.24z" style="fill:#202020;"/><polygon points="369.722,103.487 370.057,103.24 369.803,103.175        " style="fill:#202020;"/><path d="M366.439,101.974c-0.295,0.338-0.619,0.367-0.984,0.422c0.392,0.153,0.797,0.234,1.181,0.233         C366.69,102.385,366.859,101.947,366.439,101.974z" style="fill:#202020;"/><path d="M367.895,102.19c-0.021,0.014-0.046,0.031-0.066,0.044         C367.869,102.3,367.901,102.322,367.895,102.19z" style="fill:#202020;"/><polygon points="361.859,102.39 361.917,102.531 361.931,102.397        " style="fill:#202020;"/><path d="M366.702,102.774c0.294,0.15,0.47-0.04,0.638-0.28c-0.221,0.079-0.454,0.129-0.704,0.135         C366.611,102.74,366.607,102.813,366.702,102.774z" style="fill:#202020;"/><path d="M364.264,101.61c0.153,0.163,0.327,0.3,0.51,0.427         C364.624,101.792,364.318,101.407,364.264,101.61z" style="fill:#202020;"/><path d="M367.729,102.02c0.015-0.013,0.028-0.027,0.044-0.035         C367.677,101.818,367.689,101.899,367.729,102.02z" style="fill:#202020;"/><path d="M367.729,102.02c-0.151,0.112-0.271,0.304-0.39,0.474c0.179-0.061,0.345-0.145,0.488-0.259         C367.792,102.179,367.756,102.096,367.729,102.02z" style="fill:#202020;"/><path d="M360.77,107.382c0.053-0.721,0.826-1.387,1.494-0.614c0.657-0.54,0.228-2.911-0.347-4.237         c-0.021,0.314-0.021,0.605-0.696,1.031c0.236,0.394,1.5,0.921,0.93,1.573c-0.896,0.371-0.734-0.255-1.17-0.636         c0.371,0.898-1.14,1.307-0.944,2.627l0.786-0.465C360.837,106.867,360.552,107.195,360.77,107.382z" style="fill:#202020;"/><path d="M363.206,102.605l0.278-0.089c-0.317-0.125-0.545-0.414-0.963-0.978         c-0.463,0.352-0.559,0.62-0.591,0.859l1.37,0.101L363.206,102.605z" style="fill:#202020;"/><path d="M364.733,102.513c-0.218,0.784-0.886,1.118-0.477,1.967c0.816-0.055,0.572-0.655,1.061-0.996         c-1.318,0.194,0.378-0.437-0.574-0.881c0.26-0.133,0.492-0.174,0.712-0.207c-0.237-0.096-0.466-0.214-0.682-0.359         c0.012,0.019,0.021,0.032,0.03,0.048l0.007-0.002l-0.002,0.012c0.058,0.098,0.076,0.157,0.012,0.101         c-0.004,0.01-0.021,0.014-0.027,0.016c-0.009,0.109-0.033,0.204-0.06,0.296c-0.382-0.162-0.06-0.204,0.06-0.296         c0.004-0.039,0.015-0.075,0.016-0.117l-0.005-0.01l-1.319,0.43C363.764,102.625,364.113,102.603,364.733,102.513z" style="fill:#202020;"/><path d="M371.358,106.447c-0.041-0.069-0.04-0.125-0.043-0.182         C371.23,106.36,371.198,106.426,371.358,106.447z" style="fill:#202020;"/><path d="M370.815,105.973c0.096-0.109,0.176-0.423,0.487-0.342c0.271,0.236-0.001,0.376,0.013,0.634         c0.188-0.208,0.658-0.563,0.068-0.944l-0.093,0.106c-0.531-0.269-1.215-1.248-1.122-1.355         C370.324,104.777,370.461,105.281,370.815,105.973z" style="fill:#202020;"/><path d="M367.736,104.443l-1.1,0.384l0.56,0.679l-0.028-0.408         C367.794,105.259,367.658,104.756,367.736,104.443z" style="fill:#202020;"/><polygon points="361.733,102 361.879,101.171 361.244,102.341        " style="fill:#202020;"/><polygon points="360.305,102.099 360.358,101.378 359.98,101.813        " style="fill:#202020;"/><path d="M358.453,158.032l0.378,0.043C358.662,158.021,358.546,158.014,358.453,158.032z" style="fill:#202020;"/><path d="M356.174,156.115l-0.173,0.317C356.173,156.319,356.263,156.207,356.174,156.115z" style="fill:#202020;"/><path d="M316.093,117.849c-0.673,0.626-1.716,1.326-0.906,1.25l0.79-0.192         C315.835,118.47,315.923,118.134,316.093,117.849z" style="fill:#202020;"/><path d="M335.052,144.334c-0.003-0.102-0.006-0.21-0.009-0.316c-0.269,0.129-0.52,0.25-0.749,0.359         C334.523,144.364,334.781,144.35,335.052,144.334z" style="fill:#202020;"/><path d="M337.195,141.867l0.338,0.931C337.491,142.534,337.386,142.229,337.195,141.867z" style="fill:#202020;"/><path d="M371.112,167.25l0.481-0.645C371.026,166.149,371.215,166.826,371.112,167.25z" style="fill:#202020;"/><path d="M341.026,102.39c-0.54-0.309-0.971-0.438-1.349-0.477         C340.329,102.367,340.854,103.047,341.026,102.39z" style="fill:#202020;"/><path d="M354.965,165.741c0.258,0.033,0.397-0.052,0.444-0.229         C355.149,165.468,354.979,165.515,354.965,165.741z" style="fill:#202020;"/><path d="M338.117,101.917c0.095,0.079,0.188,0.119,0.285,0.186c0.396-0.132,0.793-0.239,1.275-0.188         C339.197,101.576,338.646,101.368,338.117,101.917z" style="fill:#202020;"/><path d="M377.381,133.18c0.036-0.024,0.053-0.059,0.095-0.079         C377.368,133.068,377.363,133.111,377.381,133.18z" style="fill:#202020;"/><path d="M385.329,120.789c0.048,0.14,0.048,0.365,0.058,0.578         C385.441,121.266,385.437,121.092,385.329,120.789z" style="fill:#202020;"/><path d="M352.853,101.755C353.256,101.703,352.917,101.667,352.853,101.755L352.853,101.755z" style="fill:#202020;"/><path d="M354.814,104.877c-0.086,0.088-0.15,0.202-0.161,0.384         C354.687,105.071,354.743,104.95,354.814,104.877z" style="fill:#202020;"/><path d="M334.099,106.831c-0.012-0.001-0.021-0.001-0.034-0.002         C334.185,106.982,334.163,106.953,334.099,106.831z" style="fill:#202020;"/><path d="M353.46,102.114c-0.151-0.097-0.326-0.178-0.516-0.235         C353.027,101.941,353.185,102.017,353.46,102.114z" style="fill:#202020;"/><path d="M353.378,101.74c0.14,0.03,0.249,0.054,0.353,0.077         C353.781,101.685,353.736,101.603,353.378,101.74z" style="fill:#202020;"/><path d="M352.291,101.797c0.23-0.012,0.446,0.025,0.653,0.082c-0.079-0.053-0.112-0.098-0.092-0.124         C352.734,101.764,352.567,101.776,352.291,101.797z" style="fill:#202020;"/><path d="M379.494,159.602c0.025-0.013,0.041-0.034,0.074-0.044         C379.241,158.988,379.294,159.189,379.494,159.602z" style="fill:#202020;"/><path d="M325.066,127.167c-0.012-0.013-0.035-0.015-0.048-0.026c-0.004,0.018-0.008,0.04-0.011,0.057         L325.066,127.167z" style="fill:#202020;"/><path d="M325.995,128.134c-1.097-0.146-1.063-0.501-0.987-0.937c0,0-0.512,0.271-1.023,0.541         c-0.509,0.281-1.018,0.563-1.018,0.563s0.765-0.013,1.518-0.056C325.232,128.207,325.995,128.133,325.995,128.134z" style="fill:#202020;"/><path d="M364.002,162.252l-0.576-1.383c1.175-0.55,1.707,0.402,1.256-1.251         c-0.688,2.628-2.896-2.028-3.652,0.539l-0.353-0.956c0.135,0.14,0.197,0.003,0.329,0.143         c-0.624-2.034-1.205,1.324-2.362-0.072c-0.381-0.554-0.573-1.173-0.19-1.24l-1.152-0.149         c-0.268-0.28-0.063-0.666,0.201-0.391l-1.535-0.994l0.034-0.065c-0.336,0.226-1.017,0.445-1.34,0.51         c-0.259-0.667,0.279-0.11,0.286-0.502l-1.03-0.066c-0.111-0.916,0.785-0.988,1.315-0.438c0.088-3.11-0.896,0.073-2.023-2.702         l0.875,0.307c0.014-1.795-0.757-1.767-1.272-3.313c0.014,0.6,0.891,3.564-0.212,3.461c-0.182-0.388-0.473-0.739-1.142-0.642         c0.331-0.864-0.214-1.029-0.814-1.454l0.499-1.095c-0.753-0.179-0.941,0.431-1.524,0.633         c-0.656-0.682-0.427-1.657-0.271-2.509c-1.029-1.076,0.164,1.997-1.25,1.13c-0.743-1.179-1.593-1.257-3.04-1.535         c-0.474-0.902,0.441-0.559,0.359-1.056l-1.011,0.375c-0.132-0.136,0.047-0.358,0.138-0.47         c-0.659-0.072-0.583,1.025-1.515,0.675c-0.84,0.97-0.686-2.973-2.364-2.461c-0.069-0.482,0.477-0.532,0.632-0.987         c-1.798-0.231-1.473-0.303-3.245-0.087l-0.519-1.407c0.209,1.296-1.219,1.468-2.481,1.536         c0.015,0.555,0.026,1.032,0.075,1.296l-1.62-0.519c-0.047-0.281,0.308-0.503,0.787-0.734         c-0.141,0.009-0.275,0.02-0.389,0.041c-0.211-0.717,0.408-1.08,1.091-1.363c0.016,0.32,0.031,0.645,0.047,0.963         c0.704-0.339,1.419-0.767,1.73-1.392c-0.153,0.048-0.37,0.021-0.574-0.062c0.186-0.097,0.331-0.199,0.358-0.326         c0.027-0.137-0.242-0.024-0.608,0.062l0.451-1.306l-0.356,0.375l-1.113-1.953c-1.881,0.154-4.046,0.872-6.254-0.233         c1.059-0.366,1.073-1.131,1.808-1.987c-0.248,1.337,1.717,0.743,2.495,1.688c-0.412-0.497,0.021-0.837,0.256-0.888         l-2.324-0.491c0.621-0.688,0.058-0.835-0.092-1.467c-0.456,0.825-0.878,0.832-1.332,0.602         c-0.446-0.235-0.919-0.638-1.364-0.798c0.443-0.467,0.986-0.642,1.523,0.018c0.066-0.41-0.045-0.554-0.256-0.598         c-0.202-0.064-0.51-0.008-0.827,0.046c-0.632,0.113-1.324,0.194-1.203-0.572c0.164,0.175,0.174,0.333,0.477,0.212         c-0.821-0.056-1.216-1.524-0.593-1.53l0.14,0.19c-0.815-1.338-2.28-4.198-3.805-3.891c0.181-0.086,1.814-0.501,2.137-0.541         c0,0-0.37-0.04-0.925-0.099c-0.559-0.067-1.322-0.171-2.038-0.328c-1.457-0.295-2.971-0.771-2.971-0.771         c0.685-0.036,1.705-0.537,2.708-0.852c1-0.319,1.979-0.474,2.528,0.016c0.079-0.406,0.116-0.869-0.453-1.485         c-0.143,0.26-1.75,1.058-1.938,0.73c0.623-0.658,0.787-0.844,0.915-1.067c0.147-0.21,0.187-0.48,0.773-1.082         c-0.263,0.381-2.351,0.276-2.335-0.397c0.317,0.07,2.049-0.192,2.279-0.015c0,0-0.533-0.281-1.074-0.626         c-0.555-0.321-1.055-0.784-1.055-0.784c0.368,0.428,1.734,0.076,2.313-0.308c-0.4,0.178,0.038-1.483-0.165-1.94l-0.475,0.727         c0.31-1.937-2.878-1.913-2.771-3.834c0.425,0.241,2.6,0.555,2.863-0.384c-0.493-0.148-1.8-0.54-2.906-1.349         c-0.565-0.402-1.104-0.905-1.465-1.463c-0.392-0.564-0.601-1.175-0.596-1.75c0,0,0.175-0.039,0.349-0.078         c0.177-0.033,0.354-0.065,0.354-0.065s0.018-0.43,0.035-0.86c0.008-0.222,0.031-0.441,0.06-0.602         c0.024-0.165,0.041-0.274,0.041-0.274c0.2,0.42,0.455,0.979,0.792,1.578c0.314,0.59,0.71,1.213,1.146,1.782         c0.842,1.144,1.896,2.001,2.479,2.451c0.557-0.392,0.703-0.036,0.782-0.664c0.591-0.062,0.75,0.493,0.78,0.642         c0,0,0.12-0.297,0.299-0.555c0.156-0.266,0.368-0.49,0.354-0.495c-0.589-0.211-0.744-0.545-0.879-0.938         c-0.111-0.373-0.158-0.776-0.602-1.034c0,0,0.007,0.141,0.019,0.353c0.002,0.201,0.044,0.477,0.101,0.738         c0.038,0.254,0.123,0.506,0.186,0.685c0.061,0.173,0.101,0.289,0.101,0.289c-0.595-0.151-1.34-0.619-1.807-1.356         c-0.43-0.7-0.524-1.686,0.063-2.252c0.315-0.015,0.693,0.388,1.061,0.79c0.364,0.406,0.718,0.805,0.894,0.912         c-0.123-0.172-0.135-0.528-0.03-0.813c0.113-0.275,0.276-0.52,0.432-0.438c-0.024-0.004,0.136,0.825,0.141,0.809         c0.363-0.077,0.244-0.517,0.256-0.949c-0.007-0.427,0.153-0.828,0.806-0.556c0.141-0.034,0.509,0.189,0.78,0.377         c0.279,0.196,0.463,0.321,0.328-0.017c-0.898-1.121-3.314-4.742-3.271-5.93c0.108,0.015,0.852-0.03,1.641,0.143         c0.778,0.12,1.57,0.469,1.87,0.733c0.456,0.478,0.297,1.151,0.227,1.833c-0.087,0.677-0.101,1.313,0.214,1.718         c-0.072-0.323,0.1-0.805,0.198-0.956c0.374,0.232,0.073,1.04,0.688,0.79c-0.029-1.263,1.417,0.026,0.227-1.072         c0.692-0.398,0.846,0.225,1.908,0.169c-0.345-0.801,0.974-2.729,1.898-3.082c-0.055,0.315,0.152,0.727,0.253,0.914         c1.893,0.112,2.908,0.675,4.672,0.687c0.163,0.3,1.014,0.664,0.651,1.198c0.254-0.22,0.486-0.641,1.031-0.67         c1.053,1.072-1.214,0.167-0.411,1.456c0.069-0.721,1.407-0.995,2.183-1.445c-0.238-1.113-1.791-0.213-2.566,0.236         c-0.004-1.535,1.347-3.144,3.191-3.854c1.465-0.382,0.635,0.992,0.89,0.774c2.752,0.269,2.345-2.682,4.63-1.574         c0.907,0.979,0.041,1.947,0.242,2.653c-1.193,0.371-1.832-0.622-2.642-0.582l0.996,0.463c-0.38,0.325-1.177,0.572-1.61,0.288         c0.76,0.879,4.649,0.169,6.773,0.981c0.377-0.329,1.028-0.668,0.721-1.061l-0.672,0.136         c-0.618-0.789,1.265-1.091,0.414-1.459c0.901-0.555,1.911-1.427,3.181-0.981l0.238,1.116         c-0.027-0.326-0.829-0.665-1.187-0.325c0.529-0.495,1.946,1.511,2.525,0.049l-0.89-0.773         c0.905-0.561,2.023-1.746,3.148-1.394c-0.512-1.102-0.259,0.126-1.059-1.164c0.693,1.604-2.876-0.067-1.764,1.619         c-0.82-1.497-1.419-0.635-2.491-1.911c0.033,0.368,0.38,0.704-0.564,0.522c-0.042,0.107-0.143,0.244-0.207,0.324         c-0.028-0.009-0.039-0.016-0.063-0.027l0.052,0.043c-0.041,0.055-0.044,0.066,0.02,0.015c0.225,0.161,0.407,0.354,0.481,0.56         c-0.469,0.845-1.97,0.819-2.478,1.256c-0.561-0.175,0.234-0.422-0.072-0.815l-0.758,0.654         c-0.075-0.818-1.488-1.358-0.169-1.837l-1.188-0.037c-0.699-0.458-1.661-0.641-2.255-0.297         c-0.56-0.177-1.415,0.905-0.927,0.265l-1.862,0.506l-0.018-0.205c-1.838-0.103-3.783,1.354-5.885-0.122         c-0.618,0.206-1.258,0.458-2.293,0.226l-0.202-0.707c-0.794,0.247-2.386-0.707-2.727,0.029         c-0.429-0.951-1.393-1.055-2.424-0.963l-0.544,0.058l-0.619,0.083c-0.41,0.051-0.81,0.135-1.19,0.231         c-0.767,0.16-1.444,0.358-2.002,0.426l0.172,0.91c-1.389,0.362-2.617,1.135-3.832,2.391l0.535,0.628         c-0.392,0.66-1.157,1.048-2.028,1.582c-0.439,0.258-0.874,0.578-1.313,0.924c-0.398,0.379-0.819,0.781-1.093,1.282         c-0.192-0.307,0.221-0.749,0.621-0.957c-1.588,0.533-2.1,2.151-2.19,3.614c-0.13,1.501,0.09,2.825-0.645,3.996         c0.132,0.317,0.17,0.578,0.146,0.817c-0.017,0.196-0.091,0.336-0.194,0.496c-0.002-0.041-0.018-0.078-0.042-0.109         c-0.011,0.045-0.013,0.112-0.011,0.18c-0.141,0.194-0.304,0.394-0.435,0.611c0.198-0.184,0.361-0.36,0.438-0.514         c0.017,0.339,0.118,0.853,0.322,1.357l-0.876,0.215c0.012,0.041,0.01,0.074,0.024,0.117         c-0.323,0.495,0.415,0.397,1.075,0.134c0.144,0.253,0.316,0.486,0.528,0.667c-1.415,0.401,0.477,1.322-1.032,1.871         c0.184,0.084,0.311,0.286,0.421,0.543c0.114,0.269,0.192,0.537,0.347,0.946c0.288,0.756,0.688,1.459,1.468,1.521         c-0.198,0.041-0.28,0.222-0.318-0.088c-0.154,0.671-0.172,1.322,0.362,1.791l-1.038,0.484c0,0,0.436,0.263,0.872,0.525         c0.424,0.257,0.885,0.471,0.885,0.471c-0.419,0.938-0.682,1.423-1.759,0.849c0.938,0.797,1.176,1.126,1.404,1.44         c0.212,0.312,0.48,0.57,1.395,1.079l-0.696,0.202c0.274,0.546,1.475,1.017,1.129,1.571c-0.296,0.878,0.383,2.422,1.491,4.045         c0.132,0.207,0.267,0.416,0.402,0.628c0.157,0.204,0.316,0.41,0.477,0.617c0.317,0.416,0.635,0.841,0.938,1.274         c0.648,0.829,1.385,1.716,1.848,2.552c0.843-2.044,0.579,1.686,1.7,0.481c-0.163,0.511,0.018,1.02-0.66,1.032         c1.588,0.648,1.479,2.205,3.186,1.81c-0.145,0.525-0.706,0.37-0.748,0.716c0.169-0.003,0.667-0.021,0.629,0.331         c-0.04,0.348-0.434,0.187-0.77,0.197c1.392,1.008,2.398-0.147,3.313-1.257c0.268,1.091,0.66,1.283,1.653,0.877         c-0.034,0.576,0.081,1.299-0.823,0.786c0.412,0.421,2.424,2.836,3.073,1.89c-0.011,0.365,0.591,0.585,0.777,0.568         c0.981,0.881,1.021,1.044,2.074,1.756l-0.185-0.388c1.077-0.896,0.976,0.396,1.859,0.898l-0.091,0.107         c1.374,2.381,1.009,0.209,2.309,2.706l0.287-0.86c0.986-1.547,1.117,2.29,2.489,2.501l-0.173-0.761         c0.825-0.129,0.566,3.635,1.083,4.338c0.065,0.255-0.308,0.078-0.536,0.044c1.127,2.277,0.651-0.894,1.899-0.217         c-0.021,0.746-0.873,1.238-0.133,1.975c0.222,0.792,2.982-0.072,3.621,1.9c-0.073-0.644-0.138-1.279,0.512-1.195         c0.853,0.481,1.628,3.516,2.83,2.649c0.064,0.21,0.066,0.364,0.034,0.483c0.741,0.125,2.213,0.999,2.805,0.487         c-0.133,1.731,0.944,2.151,1.931,2.467c0.989,0.317,1.893,0.534,1.565,1.952l1.947,1.39l-0.109,0.254         c1.19,1.181,1.758,0.835,2.308,0.476c0.244,0.425-0.009,0.534-0.06,0.668c1.677,2.026,1.903,2.062,3.591,1.771l0.022,1.095         c0.463-0.249,2.403,3.622,4.284,3.886c-0.027,0.099-0.08,0.264-0.233,0.292c0.146,0.024,0.229,0.082,0.427,0.137         c0.19,0.057,0.382,0.132,0.575,0.222c0.391,0.198,0.791,0.4,1.196,0.606c0.819,0.444,1.721,0.855,2.595,1.066         c1.748,0.403,3.37-0.199,3.056-1.981c0,0,0.094-0.102,0.21-0.279c0.108-0.18,0.254-0.42,0.399-0.66         c0.108-0.262,0.217-0.524,0.299-0.721c0.077-0.195,0.104-0.338,0.104-0.338c-0.857,0.829-1.013,0.402-1.032-0.106         c-0.037-0.533-0.047-1.203-0.471-1.09c0.39-0.779,1.657-1.14,1.345-0.007l-0.191,0.013c0.429,0.886,0.94,0.394,1.3-0.287         c0.391-0.66,0.554-1.507,1.067-1.059c0.354-1.36,0.254-2.28,0.359-3.302c0.077-1.001,0.186-1.978,0.3-2.947         c0.228-1.937,0.477-3.851,0.521-5.843l-1.247-0.212l0.077-1.344c0.291-0.21,0.978,0.019,0.921,0.99         c0.71-0.155-0.583-1.981-0.855-2.142c0.515-1.686,1.453,1.502,1.485,0.924l-0.089-0.865l-0.147,0.11         c-0.507-0.919-1.049-1.243-0.981-2.402c0.254-0.633,0.774-0.018,0.824-0.293c0.089,0.044,0.132-0.038,0.039-0.442         l0.117-1.718l-0.997,0.255c-0.487-0.996,0.058-1.615-1.071-1.315c0.435-0.083,0.693-0.574,0.845-1.118         c0.15-0.444,0.193-1.029,0.199-1.618c0.011-1.18-0.13-2.371,0.144-2.542c-0.729-1.089-0.714-1.875-0.622-2.837         c-0.21,0.175-1.341-0.076-1.201-0.869c2.335,1.103,1.018-1.211,2.708-1.378c-1.122,0.273-0.266-2.542-1.86-2.038         c0.191-0.656,0.879,0.217,1.435-0.167c-0.905-1.961,0.612-3.625,0.315-5.843c-0.312-0.101-0.788,0.146-1.25-0.408         l1.563-0.786c-0.149-0.456-1.799-0.75-0.712-1.299c-0.264,0.057-0.66,0.139-0.759-0.159c0.77-1.917,0.468-4.105,0.33-6.236         c-0.137-2.143-0.109-4.228,1.357-6.272c-0.619,0.542-0.678,0.154-0.699-0.283c-0.148,0.276-0.785-0.046-1.217-0.012         l1.206-1.708c-1.198-0.355-0.073-1.895-1.222-2.092l0.205,0.556c-1.354-0.741-3.014,0.967-4.759,0.798         c1.546,0.855-2.287,1.939-0.076,3.333c-0.355,0.256-0.562-0.279-0.966-0.156c0.747,0.371,0.903,0.779,0.568,1.473         l-0.186-0.097c0.183,2.042-0.555,2.84-1.045,5.007l0.862-0.039c-0.115,0.471-0.386,0.531-0.602,0.723         c1.307,0.765,0.073-1.354,1.515-0.629c-1.754,0.377-0.026,3.467-2.02,3.522c-0.011,0.739,0.998-0.021,0.986,0.722         l-0.539,0.088l0.695,0.332c-0.115,0.469-0.79,0.569-1.247,0.488c0.055-0.106-0.128-0.361-0.167-0.495         c-0.635,0.487,0.217,1.813,0.01,1.983l0.333-0.632c0.505,2.152-0.204,4.416,0.893,6.712l0.407-0.024         c0.753,1.756-0.446,1.07-0.1,2.842l-0.096-0.094c0.405,0.471,0.609,0.991,0.563,1.432c-0.477-0.588-0.927,0.453-1.454-0.286         c0.809,1.924,0.636,1.031,2.147,2.699l-0.675-0.009c0.61,0.609,0.933,0.768,1.106,1.684         c-0.579-0.922-1.028,0.117-1.794-0.957c-1.476,1.137,1.49,3.16-0.668,3.139c0.467,0.471,0.766,0.614,0.956,0.57         c0.191-0.037,0.275-0.302,0.313-0.468c0.075-0.39-0.032-0.903,0.168-0.592c0.305-0.058,0.654,0.258,0.903,0.651         c0.249,0.393,0.398,0.834,0.305,1.215c-0.042,0.745-2.389,0.194-2.354,2.045c0.008-0.18-0.133-0.26-0.125-0.439         c-0.477,0.454,0.646,1.675-0.129,2.135c1.13,1.055-0.064,1.065,1.376,1.957l-0.333-1.887c0.376,1.149,2.063,2.97,1.245,4.162         c-0.291-0.287-0.673-0.975-0.887-1.417c-0.425,0.239,0.282,1.059-0.154,1.306c-1.442-0.93-0.313-2.254-1.413-3.855         c-0.608,0.173,1.044,2.491-0.518,1.148c1.986,1.811-0.25,1.661,1.266,3.759l-0.863-0.575         c0.136,0.273,0.543,0.917,0.521,1.271l-1.12-1.303c0.956,1.561-0.835,1.433-0.315,2.691c-0.026-2.017,1.04,0.179,1.671-0.3         c1.156,3.228-2.259,0.069-1.845,3.07c-0.122-0.448,0.519-1.071,0.919-0.23c-0.178,0.417-0.51,0.9-0.962,0.923         c0.179,1.947,0.888,0.305,1.419,1.438c-0.526-0.034-0.42,0.262-0.139,0.701c0.14,0.209,0.325,0.498,0.493,0.719         c0.166,0.196,0.317,0.407,0.396,0.593l-0.875-0.668c-0.314,0.245,0.115,0.702,0.533,1.2c0.404,0.471,0.846,0.998,0.313,1.214         c0,0-0.236-0.464-0.487-0.891c-0.256-0.432-0.531-0.828-0.531-0.828s0.058,0.191,0.088,0.387         c0.03,0.202,0.061,0.404,0.061,0.404s-0.221-0.308-0.442-0.616c-0.224-0.3-0.447-0.601-0.447-0.601         c0.521,1.212,0.191,1.23-0.345,1.047c0.53,0.786,1.109,2.328,0.496,2.494c-0.654-0.727-0.255-1.188-0.902-1.029         c-0.043-0.788-0.321-1.774,0.383-0.645c-0.136-0.414-0.211-0.837-0.373-1.246c-0.568-0.777-0.598-0.145-0.781-0.18         c0.067,0.065,0.155,0.142,0.243,0.333c0,0-0.046,0.421-0.175,0.773c-0.12,0.36-0.316,0.65-0.316,0.65         c-0.171-0.529-0.085-0.808-0.037-1.127c-0.123,0.061-0.195,0.534-0.436,0.468c0.057-0.871,0.074-1.805,0.201-2.159         c0.012,0.016-0.318,0.812-0.512,0.644c-0.063-0.451-0.627-1.608-0.415-1.775c-0.712-1.12-2.074,0.098-3.038-1.4         c-0.074,0.118-0.202,0.185-0.438,0.124c-0.958-0.986-1.651-2.68-2.984-2.503l-0.403-1.977         c-0.958-0.406,0.571,2.542-1.039,1.854c-1.163-0.419-0.172-1.546-0.469-2.248c-0.657,0.297-1.9,0.979-2.638-0.965         C363.467,161.695,363.676,162.109,364.002,162.252z M352.615,153.721c0.287-0.003,0.924-0.218,0.896,0.426         C352.901,154.948,352.879,154.309,352.615,153.721z M334.29,141.54c0.333-0.103,0.506,0.222,0.608,0.734         C334.646,142.162,334.425,141.94,334.29,141.54z M348.432,102.469c-0.013,0.014-0.021,0.024-0.031,0.043         C347.743,102.17,347.977,102.304,348.432,102.469z M349.796,102.851c0.138-0.123,0.128-0.245,0.07-0.367         c-0.096,0.222-0.401,0.237-0.751,0.175C349.213,102.888,349.389,103.047,349.796,102.851z M385.203,158.139l-0.218,0.173         C384.75,157.579,384.965,157.854,385.203,158.139z" style="fill:#202020;"/><path d="M336.942,142.148c-0.02,0.175-0.093,0.328-0.169,0.478         C336.942,142.573,337.037,142.431,336.942,142.148z" style="fill:#202020;"/><path d="M371.022,167.368c0.01,0.018,0.021,0.024,0.032,0.04c0.026-0.046,0.044-0.101,0.058-0.158         L371.022,167.368z" style="fill:#202020;"/><path d="M329.373,110.421c-0.199-0.084-0.336-0.207-0.447-0.352         C328.971,110.281,329.098,110.43,329.373,110.421z" style="fill:#202020;"/><path d="M357.028,101.358l-0.875,0.228c0.424-0.043,0.574,0.148,0.788,0.288         C356.922,101.669,356.755,101.373,357.028,101.358z" style="fill:#202020;"/><path d="M363.393,106.792c0.096-0.107,0.203-0.012,0.298-0.121l-0.026-0.408         C363.256,106.29,362.97,106.618,363.393,106.792z" style="fill:#202020;"/><path d="M357.837,104.275c0.069,0.739,0.618,0.488,1.23,0.352c-0.037,0.002-0.072,0.009-0.108,0         C359.14,103.593,358.486,103.935,357.837,104.275z" style="fill:#202020;"/><path d="M359.209,104.602c0.181-0.034,0.4-0.054,0.548-0.019         C359.83,104.169,359.559,104.497,359.209,104.602z" style="fill:#202020;"/><path d="M351.527,102.361c0.29,0.19,0.182-0.944,0.347-0.644         C352.198,100.777,349.938,102.855,351.527,102.361z" style="fill:#202020;"/><polygon points="358.333,106.709 358.113,105.797 357.771,106.533        " style="fill:#202020;"/><path d="M353.498,106.04l0.979,0.252c-0.015-0.153,0.109-0.243,0.262-0.311         C354.136,105.951,353.476,105.77,353.498,106.04z" style="fill:#202020;"/><path d="M354.738,105.981c0.314,0.019,0.613-0.001,0.788-0.151         C355.356,105.839,354.991,105.87,354.738,105.981z" style="fill:#202020;"/><polygon points="356.995,106.982 356.706,106.792 356.016,106.726        " style="fill:#202020;"/><path d="M342.98,105.864l-1.067,0.261c-0.109,0.313,0.182,0.504,0.579,0.379         C342.748,106.286,343.145,106.166,342.98,105.864z" style="fill:#202020;"/><path d="M346.21,108.361c-0.289-0.189-0.309-0.393-0.471-0.692l-0.033,1.13L346.21,108.361z" style="fill:#202020;"/><path d="M343.096,108.625c-0.106,0.313-1.55,0.9-0.196,0.829         C343.008,109.143,344.077,108.883,343.096,108.625z" style="fill:#202020;"/><path d="M327.26,107.826l0.238-0.103l-0.655-1.734c0,0,0.099,0.461,0.198,0.922         C327.15,107.368,327.26,107.826,327.26,107.826z" style="fill:#202020;"/><path d="M325.542,118.82c0.444-1.265-1.144-0.3-0.589-1.444c-0.438-0.297-0.452,0.935-0.831,0.63         C324.584,118.77,324.323,119.171,325.542,118.82z" style="fill:#202020;"/><path d="M324.122,118.006c-0.073-0.123-0.162-0.252-0.282-0.39         C323.956,117.838,324.045,117.942,324.122,118.006z" style="fill:#202020;"/><polygon points="386.334,118.481 386.724,117.844 386.099,118.25        " style="fill:#202020;"/><path d="M384.967,117.242l1.182-0.144l-1.066-0.384C385.134,116.856,385.234,117.135,384.967,117.242z         " style="fill:#202020;"/><path d="M351.868,150.045l-0.155,0.241c-0.029,0.373,0.101,0.507,0.358,0.779L351.868,150.045z" style="fill:#202020;"/><polygon points="359.545,157.43 359.414,157.292 359.363,158.628        " style="fill:#202020;"/><path d="M366.561,161.381c-0.26-0.269-0.629-0.262-0.892-0.533         C366.298,161.11,366.356,162.932,366.561,161.381z" style="fill:#202020;"/></g></g></g></g><g><g><g><g><path d="M386.317,310.603c-0.066,0.272,0.696,0.175,0.833,0.216         C386.981,310.363,386.119,310.614,386.317,310.603z" style="fill:#202020;"/><polygon points="384.587,306.108 384.897,306.188 384.135,305.525        " style="fill:#202020;"/><path d="M384.601,301.906c-1.299,0.397,0.21,1.522-0.252,2.271l-0.296,0.123l1.045,0.338         C384.933,303.729,384.238,302.547,384.601,301.906z" style="fill:#202020;"/><path d="M387.411,299.666c-0.506,0.138-0.436-0.485-0.158,0.522c0.055-0.051,0.087-0.065,0.127-0.095         C387.373,300.003,387.374,299.878,387.411,299.666z" style="fill:#202020;"/><path d="M387.38,300.094C387.416,300.536,387.806,299.804,387.38,300.094L387.38,300.094z" style="fill:#202020;"/><path d="M387.091,298.05l0.451,0.583c0.299-0.122,0.366-0.641,0.583-0.448         C387.878,297.587,387.581,297.71,387.091,298.05z" style="fill:#202020;"/><path d="M386.143,297.497l0.191,0.302C386.459,297.746,386.503,297.666,386.143,297.497z" style="fill:#202020;"/><path d="M386.737,298.439l-0.403-0.641c-0.21,0.084-0.631,0.094,0.146,0.294         C386.095,298.041,386.464,298.167,386.737,298.439z" style="fill:#202020;"/><path d="M386.539,298.802c-0.282,0.327-0.461,0.75-0.91,0.165         C385.808,300.082,386.721,299.918,386.539,298.802z" style="fill:#202020;"/><path d="M383.257,301.691l-0.38,0.438l0.436,0.378C383.096,302.318,383.664,301.665,383.257,301.691z" style="fill:#202020;"/><path d="M387.764,294.418c-0.276-0.036-0.737,0.196-1.091,0.239l0.317,0.431         C387.18,294.867,387.354,294.447,387.764,294.418z" style="fill:#202020;"/><path d="M386.673,294.657l-0.475-0.645C386.143,294.589,386.368,294.693,386.673,294.657z" style="fill:#202020;"/><polygon points="384.7,297.393 385.697,298.451 384.687,297.188        " style="fill:#202020;"/><polygon points="387.798,291.957 388.438,292.322 387.472,291.672        " style="fill:#202020;"/><path d="M387.687,290.325c0.529,0.271,0.896-0.371,1.223-0.085c-0.095-0.443-0.55-0.822-0.959-1.163         C388.179,289.439,388.12,289.826,387.687,290.325z" style="fill:#202020;"/><path d="M387.354,288.505c0.127,0.181,0.354,0.368,0.597,0.572         C387.828,288.885,387.652,288.695,387.354,288.505z" style="fill:#202020;"/><path d="M386.335,292.916c0.168-0.05,0.605-0.146,0.79-0.508l-0.778,0.254         C386.344,292.739,386.34,292.827,386.335,292.916z" style="fill:#202020;"/><path d="M386.322,292.671l0.024-0.009c0.021-0.275,0.037-0.466,0.043-0.548         C386.382,292.185,386.361,292.353,386.322,292.671z" style="fill:#202020;"/><path d="M386.332,292.979c0.001-0.023,0.002-0.041,0.003-0.063         C386.259,292.94,386.233,292.955,386.332,292.979z" style="fill:#202020;"/><path d="M385.403,295.704c-0.434-0.379-0.9-1.168-1.563-0.404         C384.372,295.571,384.75,295.134,385.403,295.704z" style="fill:#202020;"/><path d="M385.359,293.294l-0.178,0.685c0.205-0.014,0.505-0.137,0.721,0.051L385.359,293.294z" style="fill:#202020;"/><polygon points="385.113,292.959 385.359,293.294 385.426,293.04        " style="fill:#202020;"/><path d="M386.626,289.678c-0.338-0.296-0.367-0.619-0.422-0.984c-0.152,0.392-0.234,0.796-0.233,1.181         C386.216,289.928,386.653,290.097,386.626,289.678z" style="fill:#202020;"/><path d="M386.41,291.132c-0.014-0.021-0.031-0.047-0.045-0.065         C386.3,291.106,386.278,291.139,386.41,291.132z" style="fill:#202020;"/><path d="M386.21,285.097c-0.049,0.021-0.092,0.038-0.142,0.059c0.046,0.004,0.082,0.008,0.135,0.013         L386.21,285.097z" style="fill:#202020;"/><path d="M385.826,289.939c-0.15,0.294,0.04,0.47,0.28,0.638c-0.078-0.22-0.13-0.453-0.136-0.703         C385.86,289.85,385.787,289.845,385.826,289.939z" style="fill:#202020;"/><path d="M386.99,287.502c-0.162,0.153-0.3,0.327-0.428,0.51         C386.809,287.861,387.193,287.556,386.99,287.502z" style="fill:#202020;"/><path d="M386.581,290.967c0.012,0.015,0.026,0.028,0.034,0.044         C386.782,290.915,386.7,290.927,386.581,290.967z" style="fill:#202020;"/><path d="M386.581,290.967c-0.112-0.151-0.305-0.271-0.475-0.39c0.061,0.179,0.145,0.345,0.259,0.489         C386.421,291.03,386.504,290.993,386.581,290.967z" style="fill:#202020;"/><path d="M381.151,284.05c0.712-0.014,1.478,0.786,0.681,1.451c0.539,0.657,2.911,0.228,4.236-0.346         c-0.323-0.043-0.58,0.04-1.065-0.79c-0.346,0.369-0.889,1.584-1.538,1.022c-0.367-0.891,0.221-0.774,0.583-1.268         c-0.868,0.429-1.396-1.171-2.693-0.798l0.521,0.736C381.671,284.082,381.323,283.828,381.151,284.05z" style="fill:#202020;"/><path d="M385.995,286.443l0.089,0.278c0.126-0.317,0.414-0.544,0.979-0.963         c-0.353-0.463-0.619-0.559-0.859-0.591l-0.101,1.37L385.995,286.443z" style="fill:#202020;"/><path d="M386.088,287.971c-0.785-0.217-1.118-0.885-1.967-0.476c0.054,0.816,0.654,0.572,0.995,1.06         c-0.194-1.317,0.437,0.379,0.882-0.573c0.133,0.259,0.174,0.491,0.206,0.712c0.096-0.237,0.214-0.467,0.358-0.682         c-0.019,0.012-0.032,0.021-0.048,0.03l0.002,0.006l-0.013-0.001c-0.098,0.057-0.157,0.075-0.1,0.012         c-0.011-0.005-0.015-0.021-0.017-0.028c-0.109-0.009-0.204-0.033-0.296-0.06c0.162-0.381,0.204-0.06,0.296,0.06         c0.038,0.005,0.075,0.015,0.116,0.017l0.011-0.005l-0.431-1.32C385.975,287.001,385.998,287.351,386.088,287.971z" style="fill:#202020;"/><path d="M382.153,294.596c0.069-0.041,0.125-0.039,0.182-0.042         C382.239,294.468,382.174,294.436,382.153,294.596z" style="fill:#202020;"/><path d="M382.627,294.053c0.109,0.096,0.424,0.176,0.342,0.488c-0.235,0.271-0.376-0.002-0.634,0.013         c0.208,0.188,0.563,0.658,0.944,0.068l-0.106-0.094c0.269-0.531,1.247-1.214,1.355-1.121         C383.822,293.563,383.319,293.699,382.627,294.053z" style="fill:#202020;"/><path d="M384.157,290.974l-0.385-1.099l-0.679,0.56l0.407-0.028         C383.342,291.031,383.844,290.896,384.157,290.974z" style="fill:#202020;"/><path d="M386.601,284.972l0.828,0.146c-0.004-0.017-0.284-0.122-0.594-0.354         c-0.305-0.201-0.609-0.403-0.609-0.403s0.095,0.156,0.189,0.313C386.512,284.836,386.603,284.981,386.601,284.972z" style="fill:#202020;"/><polygon points="386.381,283.133 387.104,283.139 386.632,282.68        " style="fill:#202020;"/><path d="M228.01,272.748l2.804-0.205C229.488,272.607,228.635,272.676,228.01,272.748z" style="fill:#202020;"/><path d="M205.813,280.196l0.001,0.795C206.219,279.719,206.461,279.19,205.813,280.196z" style="fill:#202020;"/><path d="M149.479,252.038c-3.592,2.059-7.788,4.133-6.894,4.449l1.47-0.18         C146.18,254.394,147.931,253.081,149.479,252.038z" style="fill:#202020;"/><path d="M171.439,415.583c-0.39-0.078-0.794-0.159-1.196-0.24c-0.991,0.271-1.924,0.527-2.758,0.756         C168.674,415.943,170.024,415.768,171.439,415.583z" style="fill:#202020;"/><path d="M174.321,412.316l5.385,0.509C178.495,412.647,176.763,412.478,174.321,412.316z" style="fill:#202020;"/><path d="M307.199,318.223l0.805,3.271C308,316.375,307.594,318.627,307.199,318.223z" style="fill:#202020;"/><path d="M295.305,198.791c-2.538-2.466-4.63-4.338-6.517-5.924         C291.794,195.9,294.02,198.591,295.305,198.791z" style="fill:#202020;"/><path d="M220.022,281.127c1.716-0.143,2.449-0.304,2.399-0.479         C220.654,280.782,219.655,280.933,220.022,281.127z" style="fill:#202020;"/><path d="M280.895,186.439c0.432,0.454,0.879,0.87,1.327,1.321c2.081,1.525,4.158,3.08,6.566,5.107         C286.57,190.624,283.917,188.194,280.895,186.439z" style="fill:#202020;"/><path d="M377.381,328.236c0.036-0.034,0.053-0.074,0.095-0.104         C377.368,328.121,377.363,328.168,377.381,328.236z" style="fill:#202020;"/><path d="M385.349,314.742c0.049,0.133,0.05,0.35,0.061,0.554         C385.464,315.196,385.458,315.029,385.349,314.742z" style="fill:#202020;"/><path d="M355.49,247.01C357.563,248.631,355.869,247.205,355.49,247.01L355.49,247.01z" style="fill:#202020;"/><path d="M363.434,257.51c-0.489-0.284-0.89-0.465-1.056-0.365         C362.666,257.134,363.026,257.271,363.434,257.51z" style="fill:#202020;"/><path d="M256.548,175.615c-0.076-0.01-0.136-0.018-0.224-0.029         C257.078,175.83,256.947,175.785,256.548,175.615z" style="fill:#202020;"/><path d="M358.332,249.788c-0.705-0.698-1.535-1.48-2.459-2.307         C356.255,247.873,356.999,248.578,358.332,249.788z" style="fill:#202020;"/><path d="M358.155,249.162c0.684,0.596,1.222,1.065,1.733,1.512         C360.229,250.781,360.055,250.532,358.155,249.162z" style="fill:#202020;"/><path d="M352.623,244.728c1.174,0.941,2.239,1.857,3.25,2.753c-0.367-0.368-0.507-0.539-0.383-0.471         C354.887,246.529,354.035,245.852,352.623,244.728z" style="fill:#202020;"/><path d="M379.494,397.885c0.023-0.174,0.05-0.373,0.074-0.563         C379.241,394.668,379.294,395.832,379.494,397.885z" style="fill:#202020;"/><path d="M132.249,314.178c-0.008-0.123-0.029-0.188-0.038-0.301c-0.009,0.124-0.02,0.278-0.027,0.39         L132.249,314.178z" style="fill:#202020;"/><path d="M132.837,323.625c-0.983-4.023-0.862-6.311-0.654-9.358l-2.277,3.125L132.837,323.625z" style="fill:#202020;"/><path d="M276.621,272.521l-6.635-0.709c8.008-1.168,13.801-0.766,7.571-1.764         c-0.937,2.473-25.786,0.254-26.708,2.723l-4.374-0.52c1.253,0.024,1.454-0.121,2.692-0.097         c-8.505-1.184-6.318,1.787-17.277,1.436c-3.818-0.189-6.484-0.549-3.88-0.842l-8.509,0.611         c-1.134-0.041-1.979-0.102-1.745-0.223c0.051-0.029,0.156-0.061,0.313-0.091c0.155-0.03,0.39-0.063,0.545-0.076         c0.365-0.034,0.865-0.053,1.481-0.041c0,0-0.203,0.003-0.558,0.009c-0.177,0.002-0.393,0.006-0.64,0.01         c-0.124,0.002-0.255,0.004-0.394,0.006c-0.185,0.009-0.38,0.018-0.583,0.027c-1.711,0.056-4.007,0.57-6.013,1.665         c-2.022,1.069-3.665,2.697-4.655,4.066c-0.52,0.671-0.841,1.308-1.096,1.729c-0.213,0.447-0.335,0.703-0.335,0.703         l-0.007-0.153c-0.413,1.24-0.856,3.338-0.705,5.403c0.017,0.248,0.029,0.537,0.055,0.745l0.083,0.572         c0.053,0.379,0.105,0.75,0.156,1.105c0.094,0.71,0.179,1.356,0.247,1.868c-0.354,3.298-0.262-1.654-0.57-0.81l0.599,7.186         c-0.64,2.928-1.262-3.027-1.17-7.992c-2.468,6.712,0.622,5.964-0.819,20.448l-0.314-6.785         c-1.401,4.374-0.893,9.67-1.768,17.343c0.457-1.821,2.204-15.36,2.819-7.561c-0.187,2.198-0.275,5.096,0.222,9.304         c-0.879,0.039-0.663,4.146-0.613,9.288l-1.164-0.351c0.336,5.559,0.929,5.119,1.453,8.39         c-0.115,6.195-1.016,7.479-1.776,8.938c-0.185,9.921,1.446-6.851,1.665,4.892c-0.445,8.25,0.03,14.044,0.728,23.915         c-0.401,5.774-0.712-1.011-1.045,1.061l0.929,5.119c-0.022,1.254-0.308,0.849-0.452,0.644         c0.36,4.313,1.163,0.355,1.479,7.137c0.641,0.914,0.173,4.395-0.274,8.695c-0.112,1.075-0.222,2.202-0.313,3.353         c-0.04,0.575-0.08,1.156-0.121,1.74c-0.033,0.574-0.056,1.241-0.104,1.544c-0.169,1.545-0.715,2.971-1.458,4.295         c-0.615,0.419-0.62,0.127-0.55-0.189c0.048-0.352,0.143-0.748-0.162-0.755c-0.945,1.462-2.166,2.112-3.112,2.463         c-0.25,0.073-0.481,0.141-0.7,0.205c-0.231,0.041-0.448,0.079-0.655,0.116c-0.632,0.058-1.201,0.108-1.753,0.159         c-2.21,0.215-4.163,0.471-8.89,1.113l-8.054-0.764c5.917,0.874-1.643,1.908-8.266,2.758c2.098,0.423,3.892,0.792,5.096,0.968         l-10.569,0.625c-1.277-0.191-0.212-0.591,1.52-1.077c-0.722,0.096-1.404,0.19-1.937,0.279         c-3.78-0.431-1.821-1.103,0.887-1.753c1.287,0.243,2.564,0.483,3.807,0.718c2.611-0.707,5.053-1.489,4.509-2.171         c-0.687,0.134-2.01,0.249-3.464,0.314c0.683-0.192,1.119-0.363,0.802-0.479c-0.359-0.123-1.462,0.134-3.19,0.432         l-2.403-1.298l-0.583,0.516l-13.829-0.813c-2.473,0.327-4.866,0.692-7.31,1.064c-1.222,0.184-2.457,0.37-3.719,0.56         c-0.632,0.092-1.271,0.184-1.919,0.277c-0.334,0.048-0.655,0.092-0.899,0.116c-0.269,0.033-0.544,0.071-0.821,0.06         c-2.2,0.05-4.846-0.931-6.638-3.292c-0.889-1.161-1.569-2.64-1.752-4.321c-0.163-1.708-0.211-3.596-0.29-5.548         c0.952,3.896,1.554,0.837,2.682,1.05c-0.298,1.071-0.416,2.367-0.428,3.835c-0.035,1.179,0.334,2.373,1.032,3.487         c0.708,1.095,1.766,2.05,3.001,2.645c0.614,0.302,1.262,0.546,1.938,0.671c0.331,0.093,0.68,0.109,1.021,0.159l0.521,0.033         c0.185,0.015,0.489,0.013,0.728,0.022c-0.253-0.01-0.537-0.013-0.71-0.032c-0.154-0.022-0.295-0.042-0.425-0.061         c-0.259-0.022-0.456-0.118-0.614-0.169c-0.319-0.104-0.448-0.259-0.479-0.348c-0.053-0.205,0.291-0.262,0.627-0.328         c0,0-0.554,0.023-1.374-0.203c-0.826-0.198-1.884-0.76-2.77-1.594c-0.856-0.853-1.497-1.958-1.744-2.875         c-0.136-0.454-0.203-0.851-0.24-1.132c-0.027-0.121-0.038-0.287-0.045-0.396c-0.008-0.106-0.012-0.163-0.012-0.163         c0.922,0.327,0.691-3.082,1.073-6.874c-1.823,2.866-1.214-10.82-1.772-16.726c0.612-0.366,1.237,1.049,1.089,8.255         c1.373-7.95-2.141-10.272-0.974-18.076c0.014,1.76-0.08,2.708,0.231,3.402c-0.544-4.107-0.113-14.156,0.42-11.792         l0.012,1.756c0.216-11.681,0.014-35.558-1.534-37.301c0.2-0.116,1.866,1.531,2.179,2.237l-5.209-20.842         c1.33,1.836,4.496-5.211,5.247,4.475c0.189-2.781,0.41-6.222-0.058-12.085c-0.189,1.897-1.923,4.729-2.044,2.137         c1.48-7.116,0.792-4.94,2.054-13.713c-0.285,2.843-2.37-0.315-2.303-4.81c0.312,0.702,2.058-0.374,2.275,1.269         c0,0-0.128-0.699-0.32-1.747c-0.063-0.425-0.137-0.919-0.216-1.449c-0.095-0.543-0.031-1.172-0.058-1.795         c0.046-2.522,0.748-5.171,0.748-5.171c-0.368,1.287,0.013,1.549,0.618,1.281c0.576-0.285,1.526-0.998,2.276-1.798         c-0.197,0.176-0.084-0.222,0.34-0.854c0.208-0.32,0.467-0.719,0.758-1.168c0.332-0.396,0.701-0.835,1.088-1.296         c0.402-0.417,0.846-0.772,1.257-1.183c0.587-0.472,1.169-0.94,1.717-1.381c1.102-0.891,2.054-1.68,2.6-2.189l-3.975,2.627         c9.985-7.738,7.852-10.111,17.632-17.943c-0.908,1.286-1.26,4.383,3.843,0.558c1.601-2.657,6.838-12.076,14.922-19.705         l2.026-0.878l6.163-5.902c-3.109,4.568-12.534,16.53-18.01,22.658c3.963-2.617,1.466-0.284,6.919-4.796         c2.292-1.144-2.452,3.097-4.046,4.438l13.003-10.128c-1.342-0.486,8.994-8.912,7.862-9.306l-13.073,12.29         c-1.333-0.489,5.829-9.23,15.017-16.438c2.61-1.499-0.347,3.092,0.1,3.255c0.909-1.284,8.083-7.625,9.103-8.071L197,224.219         c5.329-3.749,7.198-7.958,13.991-11.987c2.14-1.643,7.236-3.864,7.141-4.72c-4.291,1.696-7.686-1.109-6.076-3.774         c0.792-0.524,11.818-7.908,14.64-9.318c4.133-1.956-3.519,6.233,0.005,4.574c-0.085-0.361,1.556-2.231,2.264-2.979         c2.375-1.567-0.255,1.543,4.419-2.46c0.011-1.61,9.767-7.823,1.592-2.65c4.44-4.076,5.119-3.842,10.563-8.348         c-1.125,0.4-0.326-1.131,1.311-3.272c0.412-0.539,0.861-1.113,1.385-1.66c0.263-0.279,0.573-0.518,0.879-0.788         c0.325-0.233,0.662-0.478,1.02-0.694c1.438-0.857,3.163-1.379,4.755-1.5c-0.353,0.313,1.047,0.699,1.659,0.974         c1.519,0.167,2.917,0.586,4.135,1.195c1.234,0.598,2.207,1.44,3.169,2.281c1.915,1.664,3.686,3.202,5.436,4.723         c3.495,3.049,6.918,6.023,11.373,9.66c0.633,0.903,4.706,4.69,2.536,3.611c1.422,0.875,2.865,1.509,5.635,3.728         c4.646,5.168-6.238-4.869-2.994-0.563c0.802-0.276,7.742,5.025,11.944,7.868c-0.502-1.845-8.917-7.54-13.125-10.388         c0.952-1.205,8.799,3.113,18.568,10.156c7.648,5.739,2.585,3.386,4.009,4.265c13.745,11.545,13.548,7.579,24.403,17.853         c3.966,4.494-1.023,1.678-0.453,3.053c-6.269-4.63-8.871-8.03-12.987-11.333l4.743,4.462         c-2.125-1.312-6.309-4.402-8.324-6.411c3.287,3.813,23.4,19.285,33.622,28.662c2.116,1.3,5.622,3.72,4.313,2.146         l-3.482-2.662c-2.624-3.156,7.082,4.363,3.015,0.574c4.908,3.283,10.566,6.769,16.698,12.342l0.501,1.847         c0.068-0.364-3.772-3.932-5.791-5.137c1.493,0.897,3.713,3.193,6.042,5.422c1.164,1.115,2.355,2.212,3.497,3.109         c1.145,0.896,2.214,1.555,3.244,2.073c0,0-0.264-0.314-0.659-0.787c-0.407-0.488-0.886-0.957-1.394-1.51         c-1.003-1.065-2.005-2.132-2.005-2.132c1.247,0.813,2.568,1.676,3.946,2.575c0.751,0.602,1.628,1.197,2.319,1.897         c0.675,0.706,1.459,1.404,2.035,2.207c2.505,3.131,4.431,6.912,5.036,11.31c0.079-1.025,0.074-1.685,0.033-2.171         c-0.061-0.476-0.178-0.77-0.293-1.143c-0.12-0.37-0.255-0.806-0.404-1.546c-0.187-0.723-0.414-1.725-0.766-3.275         c0.182,1.396-0.236,0.78-1.119-0.638c-0.211-0.36-0.452-0.772-0.716-1.222c-0.278-0.444-0.611-0.913-0.941-1.411         c-0.617-1.009-1.519-2.041-2.356-3.058c-0.46-0.498-0.987-0.97-1.467-1.426c-0.237-0.219-0.498-0.466-0.706-0.642         c-0.194-0.154-0.382-0.305-0.564-0.45c-0.729-0.578-1.361-1.06-1.817-1.363c-0.912-0.607-1.119-0.503,0.021,0.97         c-3.199-4.537-6.772-6.338-11.385-11.742c-0.065,0.422,1.475,2.11-3.184-1.919c-0.283-0.092-0.877-0.401-1.251-0.602         c-0.139-0.129-0.187-0.174-0.306-0.285c0.086,0.09,0.15,0.158,0.235,0.249c-0.241-0.125-0.267-0.131,0.089,0.092         c1.035,1.051,1.834,1.951,2.078,2.415c-2.902-1.274-10.475-7.479-13.317-9.23c-2.721-2.443,1.451,0.637,0.153-0.927         l-4.247-2.616c0.138-0.944-6.665-7.183,0.309-2.119l-5.981-4.921c-3.245-3.235-7.992-7.339-11.209-9.516         c-2.721-2.444-7.725-5.127-4.854-3.613l-9.736-7.28l0.042-0.229c-9.227-7.65-19.981-14.534-29.672-24.332         c-3.259-2.389-6.65-4.827-11.737-9.271l-0.573-1.379c-1.043-0.77-2.29-1.804-3.609-2.934         c-0.065-0.06-0.188-0.157-0.323-0.262l-0.387-0.299c-0.262-0.193-0.518-0.411-0.794-0.58         c-0.55-0.349-1.105-0.715-1.689-0.994c-1.154-0.619-2.368-1.034-3.563-1.375c-2.397-0.62-4.742-0.692-6.635-0.435         c-1.896,0.262-3.334,0.791-4.002,1.257c-1.012,0.097-2.315,0.511-3.781,1.287c-0.359,0.212-0.73,0.443-1.109,0.692         c-0.263,0.177-0.535,0.359-0.815,0.547c-0.515,0.354-1.053,0.738-1.609,1.148c-2.225,1.641-4.749,3.694-7.326,5.854         c-5.156,4.32-10.53,9.07-14.167,11.817l0.317,0.933c-4.895,3.921-9.392,7.923-15.191,13.128l0.886,0.33         c-4.78,4.759-13.742,10.45-21.918,17.22c0.362-0.697,2.501-2.335,4.097-3.393c-10.997,6.583-19.896,17.943-29.662,24.168         c-2.034,2.041-3.707,3.273-5.394,4.384c0.205-0.169,0.381-0.333,0.523-0.481c-0.229,0.183-0.569,0.455-0.919,0.735         c-1.069,0.69-2.183,1.388-3.36,2.178c1.055-0.604,2.049-1.204,2.872-1.776c-1.703,1.41-4.237,3.605-6.656,5.84l-1.639,0.206         c-0.201,0.175-0.364,0.316-0.573,0.499c-2.704,1.786-1.747,1.959,0.003,1.384c-1.192,1.157-2.258,2.248-3.036,3.155         c-1.462,0.279-3.058,1.733-4.753,3.254c-0.427,0.376-0.86,0.757-1.29,1.135c-0.203,0.162-0.47,0.42-0.724,0.653         c-0.258,0.231-0.513,0.461-0.766,0.688c-0.258,0.221-0.513,0.439-0.763,0.653c-0.223,0.221-0.449,0.434-0.677,0.636         c-0.457,0.403-0.927,0.765-1.416,1.071c-0.106,0.322-0.343,0.817-0.671,1.44c-0.167,0.309-0.354,0.653-0.556,1.026         c-0.175,0.382-0.364,0.793-0.564,1.229c-0.199,0.433-0.409,0.89-0.627,1.364c-0.18,0.489-0.366,0.997-0.557,1.517         c-0.416,1.019-0.675,2.169-0.967,3.285c-0.165,0.548-0.203,1.162-0.301,1.729c-0.064,0.586-0.196,1.122-0.183,1.716         c-0.015,1.155-0.017,2.31,0.118,3.047c0.212,1.622,0.491,2.845,0.878,3.282c-0.201,0.112-0.297,1.08-0.311-0.694         c-0.176,3.665-0.352,7.325,0.083,10.612l-1.113,1.554l1.498,8.001c-0.68,4.859-1.074,6.873-1.932,2.048         c1.319,11.653,0.497,9.454,1.804,19.364l-0.72-0.482c0.028,3.541,0.993,9.203,0.397,11.341         c-1.37,7.923-0.189,39.206-1.462,59.546c1.061-1.974,0.823,0.39,0.526,3.348c-0.037,0.37-0.074,0.749-0.112,1.13         l-0.053,0.572c-0.017,0.19-0.037,0.361-0.038,0.642c-0.036,1.011,0.048,2.011,0.254,2.873c0.383,1.745,1.17,2.886,1.637,2.92         c0.067,0.399,0.255,0.901,0.436,1.392c0.213,0.467,0.432,0.918,0.546,1.216c0.286,0.544-0.05,0.674-1.539-1.146         c2.085,3.054,4.866,4.915,7.618,5.866c1.384,0.455,2.762,0.734,4.093,0.777c0.375,0.025,0.559,0.025,0.797,0.033         c0.23,0.007,0.458,0.014,0.684,0.021c0.451,0.013,0.895,0.024,1.332,0.037c3.497,0.087,6.593,0.063,10.176-0.631         c1.188,0.504-2.222,0.735-1.165,1.033c0.833-0.108,3.298-0.437,4.378-0.137c1.057,0.299-1.52,0.421-3.163,0.641         c10.604-0.085,11.676-1.632,12.448-3.083c5.374,0.688,8.054,0.591,11.935-0.361c1.871,0.475,4.992,0.972-1.597,1.142         c3.707,0.069,22.643,0.696,23.021-0.467c0.29,0.073,0.759,0.116,1.314,0.136c0.685,0.001,1.501-0.046,2.284-0.213         c1.581-0.308,2.976-1.058,3.473-1.395c2.269-1.218,3.676-2.712,4.619-4.107c0.94-1.408,1.485-2.733,1.798-4.098         c0.146-0.683,0.274-1.377,0.295-2.109c0.009-0.183,0.018-0.368,0.027-0.557c0.001-0.155,0.002-0.313,0.003-0.474         c0-0.312-0.001-0.634-0.001-0.971c-0.013-1.347-0.027-2.924-0.046-4.965l-0.19,2.264c-1.403-3.225-0.313-6.789-0.482-13.373         l0.144,0.188c1.012-15.098-0.485-6.519,0.67-21.412l-0.873,0.811c-1.877-1.389,1.108-13.196,0.39-21.841l-0.499,3.121         c-0.642-4.722,2.554-13.196,2.789-17.937c0.164-1.034,0.262,1.631,0.383,3.074c1.107-12.413-1.144-1.608-1.409-10.858         c0.617-1.705,1.568,2.198,1.683-4.027c0.499-3.102-2.002-18.057-0.819-26.55c-0.476,1.87-0.95,3.729-1.307-0.567         c-0.021-0.823-0.009-1.719,0.025-2.667c0.022-0.475,0.044-0.962,0.067-1.46c0.015-0.249,0.029-0.501,0.044-0.756l0.025-0.377         l0.042-0.267c0.163-1.434,0.923-2.786,1.913-3.799c1.034-0.988,2.261-1.652,3.451-1.953c0.292-0.106,0.594-0.13,0.881-0.217         c0.147-0.017,0.293-0.036,0.438-0.063l0.221-0.043l0.336-0.031c0.889-0.09,1.714-0.224,2.458-0.411         c0.837,0.13,1.153,0.255,1.188,0.373c5.034-0.387,16.359-0.643,19.391-1.455c4.652,3.016,31.294-1.466,31.183,1.314         l15.483-0.148l-0.405,0.283c1.237,0.012,2.374,0.021,3.424,0.031c0.604-0.012,0.839,0.023,1.162,0.021         c0.302,0.054,0.604,0.046,0.877,0.128c1.11,0.228,2.007,0.636,2.739,1.093c0.732,0.459,1.303,0.962,1.797,1.465         c0.507,0.5,0.896,1.032,1.246,1.612c0.143,0.857-0.021,0.989-0.123,0.894c-0.11-0.098-0.277-0.397-0.375-0.44         c0.085,0.304,0.065,0.617,0.115,0.906c-0.003,0.317-0.006,0.626-0.009,0.927c-0.028,0.808-0.055,1.57-0.08,2.294         c-0.04,1.447-0.075,2.737-0.106,3.916c-0.047,2.357-0.041,4.272,0.025,6.113c0.133,3.684,0.508,7.073,1.201,13.136         l-0.902,1.261c0.524,3.287-1.414,20.907-0.362,35.091c-0.103-0.139-0.277-0.433-0.404-1.559         c1.059,15.958-2.503,38.203,0.782,44.051l0.81,10.53c0.256-13.624,1.426,2.029,1.972-3.575         c0.048,1.34,0.011,2.875-0.076,4.321c-0.07,1.466-0.26,2.761-0.32,3.845c-0.022,0.526-0.015,0.962-0.043,1.267         c0,0.3-0.031,0.47-0.102,0.461c-0.114-0.015-0.532-0.748-0.616-2.621l0.162-1.035c-0.214-0.303-0.384-0.265-0.521,0.032         c-0.127,0.324-0.261,0.775-0.279,1.712c-0.085,1.758,0.561,4.49,2.248,6.686c0.819,1.104,1.845,2.073,2.929,2.827         c1.087,0.759,2.239,1.263,3.247,1.628c2.041,0.686,3.515,0.729,3.393,1.047c13.476-0.029,26.658,0.178,39.696,0.416         c6.512,0.113,12.97,0.227,19.369,0.338l0.601,0.01l0.3,0.004l0.396-0.01c0.548-0.02,1.097-0.032,1.64-0.127         c1.093-0.126,2.155-0.442,3.181-0.83c2.047-0.804,3.859-2.127,5.301-3.762c1.448-1.634,2.464-3.646,2.994-5.771         c0.271-1.06,0.378-2.172,0.401-3.238l0.01-2.356c0,0-0.333,0.723-0.666,1.446c-0.167,0.367-0.335,0.733-0.46,1.009         c-0.141,0.34-0.234,0.565-0.234,0.565c0.043-0.184,0.044-2.305,0.067-4.508c0.019-2.19,0.038-4.38,0.038-4.38         c0.31-2.299,1.041-3.086,0.986,3.163c0.755-3.287-0.632-10.48-0.921-10.658c0.539-12.235,1.552,4.779,1.583,1.026         l-0.099-5.096l-0.155,1.149c-0.544-4.131-1.121-4.498-1.055-12.008c0.266-4.752,0.82-2.438,0.872-4.309         c0.094,0.012,0.139-0.621,0.038-2.87l0.114-11.036l-1.052,4.413c-0.518-4.892,0.056-10.376-1.136-5.284         c0.229-0.935,0.412-2.279,0.557-3.925c0.072-0.822,0.136-1.721,0.19-2.681c0.024-0.48,0.05-0.976,0.075-1.485         c0.012-0.23,0.022-0.465,0.034-0.702l0.03-0.092c0.157-0.493,0.2-1.075,0.203-1.647c0.007-1.144-0.146-2.246,0.14-2.511         c-0.767-0.789-0.753-1.567-0.66-2.533c-0.22,0.24-1.4,0.384-1.256-0.448c2.438,0.305,1.059-1.524,2.813-2.197         c-1.163,0.602-0.287-2.365-1.939-1.423c0.197-0.694,0.913-0.042,1.487-0.568c-0.945-1.653,0.613-3.643,0.295-5.687         c-0.32-0.031-0.81,0.311-1.286-0.128l1.6-1.078c-0.156-0.403-1.847-0.372-0.735-1.109c-0.27,0.104-0.676,0.26-0.778-0.011         c1.56-4.003-1.277-8.179,1.653-12.243c-0.62,0.55-0.682,0.183-0.705-0.237c-0.148,0.273-0.79-0.006-1.225,0.048l1.205-1.702         c-1.204-0.311-0.081-1.824-1.232-2.002l0.207,0.539c-1.358-0.717-3.02,1.003-4.764,0.897         c1.546,0.803-2.287,2.116-0.076,3.433c-0.355,0.291-0.562-0.248-0.966-0.092c0.747,0.333,0.903,0.736,0.568,1.483         l-0.186-0.085c0.183,2.099-0.555,2.998-1.045,5.355l0.862-0.175c-0.115,0.507-0.386,0.613-0.602,0.851         c1.307,0.581,0.073-1.423,1.515-0.894c-1.754,0.672-0.026,3.572-2.02,4.026c-0.011,0.779,0.998-0.229,0.986,0.551         l-0.539,0.207l0.695,0.196c-0.115,0.511-0.79,0.769-1.247,0.788c0.055-0.124-0.128-0.353-0.167-0.485         c-0.635,0.662,0.217,1.868,0.01,2.096l0.333-0.749c0.505,2.127-0.204,4.724,0.893,6.778l0.407-0.156         c0.753,1.569-0.446,1.257-0.1,2.979l-0.096-0.063c0.405,0.345,0.609,0.805,0.563,1.276c-0.477-0.436-0.927,0.818-1.454,0.248         c0.809,1.701,0.636,0.841,2.147,1.965l-0.675,0.259c0.61,0.384,0.933,0.415,1.106,1.275c-0.579-0.705-1.028,0.55-1.794-0.241         c-0.737,0.903-0.365,1.573-0.078,2.121c0.144,0.274,0.266,0.518,0.218,0.744c-0.024,0.113-0.092,0.223-0.22,0.329         c-0.032,0.027-0.068,0.054-0.108,0.08l-0.063,0.039l-0.07,0.339c-0.097,0.455-0.212,0.905-0.347,1.355         c0.467,1.799,0.766,1.852,0.956,0.98c0.096-0.436,0.165-1.103,0.214-1.896c0.012-0.198,0.022-0.405,0.034-0.618l0.008-0.159         l0.007-0.02l0.013-0.038c0.016-0.052,0.028-0.105,0.038-0.16c0.075-0.436-0.032-0.918,0.168-0.686         c0.305-0.194,0.654-0.023,0.903,0.268c0.125,0.145,0.225,0.32,0.281,0.494c0.014,0.044,0.025,0.087,0.034,0.13         c0.006,0.344,0.011,0.684,0.017,1.015c0.005,0.719-0.004,1.402-0.027,2.017c-0.042,5.007-2.389,8.514-2.354,21.107         c0.008-1.253-0.133-1.338-0.125-2.588c-0.477,4.714,0.646,9.234-0.129,15.017c1.13,3.24-0.064,7.507,1.376,8.439         l-0.333-11.553c0.376,6.55,2.063,12.691,1.245,23.48c-0.291-0.841-0.673-4.051-0.887-6.257         c-0.212,1.577-0.142,3.097-0.072,4.63c0.034,0.767,0.068,1.537,0.066,2.319l-0.009,0.59         c-0.004,0.204-0.014,0.401-0.038,0.533c-0.042,0.301-0.076,0.604-0.194,0.895c-0.168-0.113-0.253-0.348-0.362-0.68         c-0.023-0.082-0.044-0.17-0.062-0.264c-0.018-0.114-0.036-0.236-0.056-0.366c-0.04-0.303-0.074-0.641-0.103-1.009         c-0.114-1.47-0.143-3.414-0.16-5.55c-0.036-4.271-0.028-9.302-0.578-12.81c-0.608,3.387,1.044,13.273-0.518,9.747         c0.993,2.534,0.931,5.637,0.81,9.172c-0.008,0.221-0.016,0.443-0.023,0.668l-0.049,0.427c-0.006,0.287-0.11,0.563-0.147,0.85         c-0.155,0.561-0.363,1.115-0.629,1.668c-0.574,1.084-1.356,2.153-2.484,3.131c0,0-0.015-0.231-0.03-0.462         c-0.02-0.227-0.061-0.466-0.061-0.466c-0.313,0.249-0.813,0.669-1.507,0.932c-0.343,0.135-0.726,0.258-1.129,0.3         c-0.108,0.014-0.185,0.032-0.321,0.043l-0.477,0.018c-0.316,0.004-0.632,0.008-0.942,0.011c0,0,0.281-0.069,0.702-0.175         c0.211-0.053,0.457-0.113,0.721-0.18c0.196-0.074,0.336-0.158,0.504-0.232c0.644-0.333,1.121-0.775,1.121-0.775         c-0.406,0.221-0.85,0.424-1.323,0.463c-0.155,0.044-0.647,0.055-1.063,0.061h-1.26c-1.676-0.025-3.33-0.144-4.977-0.275         c-3.293-0.264-6.551-0.581-9.862-0.321c13.867-0.026,3.113,1.04,8.977,1.672c-17.104,1.155-9.837-2.26-28.984-1.846         c2.592-0.122,9.732,0.519,5.678,0.919c-3.645-0.178-8.459-0.51-10.696-0.962c-12.687,0.179,1.948,0.888-3.452,1.419         c-4.32-1.053-6.229,0.428-11.792,0.766l-0.038-0.879c-0.904-0.027-1.71-0.051-2.429-0.072c-0.209,0-0.296-0.015-0.396-0.022         c-0.102-0.007-0.2-0.013-0.296-0.019c-0.192,0.002-0.363-0.058-0.53-0.069c-0.658-0.108-1.137-0.237-1.508-0.34         c-0.743-0.202-1.094-0.202-1.434-0.177c-0.345,0.023-0.684,0.056-1.313-0.416c-0.303-0.243-0.694-0.612-1.057-1.243         c-0.366-0.62-0.737-1.499-0.829-2.677c0,0,0.441,0.955,1.111,1.646c0.654,0.718,1.437,1.153,1.437,1.153         c-0.012,0.009-0.164-0.196-0.432-0.483c-0.225-0.315-0.537-0.739-0.742-1.223c-0.471-0.944-0.552-2.036-0.553-2.036         c0,0,0.267,0.219,0.52,0.399c0.264,0.183,0.55,0.323,0.55,0.323c-0.099-0.232-0.146-0.468-0.196-0.699         c-0.013-0.067-0.03-0.093-0.04-0.194l-0.027-0.309c-0.018-0.204-0.035-0.403-0.052-0.6c-0.057-0.783-0.108-1.507-0.158-2.19         c-0.082-1.366-0.118-2.572-0.123-3.773c-0.01-2.401,0.108-4.784,0.248-8.4c-0.619,1.682-1.594-0.945-1.621-7.349         c0.521-4.366,0.835,2.446,0.709-6.631c0.55,2.049,1.239,4.294,0.43,8.243c0.287,0.405,0.552,2.021,0.834,2.438         c0.6-4.702,0.137-11.819,0.129-15.105c-0.032,1.265-0.08,2.777-0.205,3.553l-1.217-13.157         c0.33-2.072,0.595-0.429,0.854,1.199c-0.095-2.665-0.498-4.509-0.573-8.429c0.714,1.015,1.45,0.771,1.786,6.318         l-0.792-12.536c0.311-0.837,0.853-6.434,1.115-4.806c0.42-6.951-1.385-17.05-0.831-26.265         c-0.138-0.479-0.271-1.439-0.373-3.398c0.161-8.66,1.037-16.332,0.059-26.597c0,0,0.021-0.091,0.056-0.25         c0.033-0.172,0.088-0.359,0.142-0.688c0.045-0.406,0.093-0.886,0.133-1.407c0.01-0.519,0.006-1.081-0.018-1.647         c-0.058-0.559-0.108-1.132-0.204-1.661c-0.109-0.523-0.211-1.023-0.326-1.442c-0.255-0.829-0.453-1.387-0.453-1.387         c-1.703-2.729-2.556-3.061-2.472-2.804c0.048,0.281,0.698,1.379,1.039,2.316c0.344,0.944,0.466,1.654-0.066,1.103         c-0.28-0.265-0.698-0.861-1.517-1.759c-0.828-0.876-2.042-2.1-4.077-3.228c-2.931-1.518-4.951-1.645-6.065-1.835         c-0.576-0.076-0.964-0.15-1.096-0.22c-0.173-0.074-0.25-0.16-0.278-0.252c-0.115-0.369,0.538-0.833-1.124-1.011         c-4.714,0.645-12.907,1.957-21.613,0.915C271.668,272.426,273.928,272.615,276.621,272.521z M204.441,312.325         c-0.184-1.921-0.753-5.751-0.235-7.155C205.213,307.357,204.731,309.051,204.441,312.325z M156.843,413.896         c1.427-0.29,3.637-0.146,6.129,0.186C161.164,414.153,159.115,414.121,156.843,413.896z M332.689,229.353         c-0.071-0.041-0.123-0.069-0.186-0.096C329.397,226.284,330.491,227.348,332.689,229.353z M339.348,235.27         c0.771,0.47,0.8,0.336,0.585,0.002c-0.622-0.22-2.181-1.47-3.905-2.956C336.372,232.894,337.163,233.743,339.348,235.27z          M385.403,369.792l-0.229,1.731C384.922,367.612,385.15,368.708,385.403,369.792z" style="fill:#202020;"/><path d="M173.931,412.694c0.544,0.148,0.694,0.313,0.822,0.478         C175.509,413.024,175.524,412.854,173.931,412.694z" style="fill:#202020;"/><path d="M307.052,317.616l-0.011,0.302c0.053,0.165,0.106,0.254,0.158,0.305L307.052,317.616z" style="fill:#202020;"/><path d="M229.727,197.113c-1.5,1.06-2.394,1.581-3.025,1.881         C226.759,199.224,227.519,198.837,229.727,197.113z" style="fill:#202020;"/><path d="M376.847,263.899l-4.563-3.424c2.165,1.708,2.807,2.479,3.798,3.466         C376.112,263.702,375.456,262.785,376.847,263.899z" style="fill:#202020;"/><path d="M381.809,286.63c0.107,0.096,0.012,0.204,0.121,0.298l0.407-0.025         C382.311,286.493,381.981,286.207,381.809,286.63z" style="fill:#202020;"/><path d="M379.096,270.379c-0.165,0.432,0.366,1.39,1.165,2.727c0.351,0.693,0.823,1.457,1.258,2.325         c0.204,0.44,0.416,0.898,0.633,1.367c0.108,0.235,0.218,0.474,0.329,0.714c0.089,0.251,0.18,0.504,0.271,0.759         c-0.08-0.247-0.161-0.48-0.231-0.73C383.92,278.438,382.145,273.968,379.096,270.379z" style="fill:#202020;"/><path d="M383.077,279.223c0.239,0.622,0.387,1.295,0.521,1.968c0.067,0.336,0.134,0.671,0.2,1.003         c0.033,0.152,0.066,0.361,0.065,0.479l-0.006,0.061c0.104,0.003,0.16-0.009,0.185-0.032c0.012-0.012,0.016-0.026,0.014-0.044         c-0.006-0.044-0.012-0.093-0.018-0.146c-0.007-0.09-0.038-0.176-0.06-0.273c-0.104-0.38-0.232-0.851-0.376-1.373         c-0.071-0.26-0.147-0.532-0.226-0.813C383.28,279.781,383.179,279.504,383.077,279.223z" style="fill:#202020;"/><path d="M348.406,242.019c1.349,1.344,1.518,0.019,2.159,0.929         C352.798,243.554,340.06,235.855,348.406,242.019z" style="fill:#202020;"/><path d="M378.85,274.559c0,0,0.029-0.432,0.058-0.863c0.014-0.429-0.006-0.855-0.006-0.855         s-0.471-0.38-0.941-0.76c-0.449-0.387-0.962-0.703-0.962-0.704C377.078,271.328,378.925,274.524,378.85,274.559z" style="fill:#202020;"/><path d="M356.046,252.99l4.787,4.226c0.021-0.18,0.706,0.263,1.521,0.838         C359.326,255.548,356.1,252.686,356.046,252.99z" style="fill:#202020;"/><path d="M362.354,258.054c1.576,1.309,3.099,2.523,4.075,3.126         C365.565,260.488,363.698,259.006,362.354,258.054z" style="fill:#202020;"/><polygon points="373.13,268.126 371.787,266.787 368.337,263.889        " style="fill:#202020;"/><path d="M302.988,209.532l-5.563-4.195c-0.748-0.206,0.603,1.141,2.69,2.682         C301.546,208.902,303.626,210.44,302.988,209.532z" style="fill:#202020;"/><path d="M317.736,224.768c-1.34-1.335-1.311-1.574-1.943-2.476l-0.878,0.742L317.736,224.768z" style="fill:#202020;"/><path d="M301.828,212.147c-0.737-0.195-8.404-5.686-1.517-0.166         C301.055,212.186,306.626,216.389,301.828,212.147z" style="fill:#202020;"/><polygon points="219.422,201.511 220.786,200.381 219.417,199.105        " style="fill:#202020;"/><path d="M150.539,263.363c6.677-4.867,0.796-2.124,6.927-6.404c1.224-1.563-5.011,3.499-3.709,1.951         C150.188,262.414,147.995,263.863,150.539,263.363z" style="fill:#202020;"/><path d="M153.756,258.91c0.573-0.562,1.171-1.164,1.792-1.824         C154.503,258.087,154.033,258.584,153.756,258.91z" style="fill:#202020;"/><polygon points="386.345,312.503 386.73,311.892 386.107,312.286        " style="fill:#202020;"/><path d="M384.97,311.329l1.182-0.144l-1.069-0.367C385.135,310.957,385.236,311.225,384.97,311.329z" style="fill:#202020;"/><path d="M202.062,327.064l0.285,0.405c0.307-0.822,0.33-2.064,0.378-4.552L202.062,327.064z" style="fill:#202020;"/><polygon points="234.695,271.592 233.457,271.567 235.771,272.637        " style="fill:#202020;"/><path d="M297.111,271.015c-0.497-0.154-1.016-0.285-1.542-0.411c-0.528-0.11-1.076-0.179-1.626-0.25         c-0.55-0.058-1.109-0.063-1.67-0.077c-0.334-0.008-0.398,0.006-0.596,0.01l-0.503,0.018         c-1.342,0.049-2.686,0.097-3.923,0.074c1.343-0.048,2.546,0.002,3.585,0.083c0.572,0.054,1.101,0.104,1.579,0.149         c0.714,0.079,1.349,0.154,1.898,0.291C296.507,271.395,297.417,271.855,297.111,271.015z" style="fill:#202020;"/></g></g></g></g><g><g><g><g><path d="M123.798,271.214c-0.253,0.121,0.304,0.649,0.359,0.782         C124.403,271.577,123.664,271.067,123.798,271.214z" style="fill:#202020;"/><polygon points="126.188,267.033 126.322,267.324 126.354,266.315        " style="fill:#202020;"/><path d="M129.454,264.39c-1.129-0.756-1.048,1.124-1.92,1.239l-0.283-0.151l0.399,1.023         C128.25,265.798,128.729,264.514,129.454,264.39z" style="fill:#202020;"/><path d="M132.966,265.152c-0.427-0.305,0.101-0.645-0.505,0.207c0.074,0.011,0.105,0.026,0.154,0.039         C132.681,265.336,132.779,265.258,132.966,265.152z" style="fill:#202020;"/><path d="M132.615,265.398C132.295,265.706,133.109,265.546,132.615,265.398L132.615,265.398z" style="fill:#202020;"/><path d="M134.017,263.884l-0.167,0.718c0.283,0.154,0.728-0.121,0.715,0.169         C134.873,264.201,134.59,264.049,134.017,263.884z" style="fill:#202020;"/><path d="M133.847,262.799l-0.114,0.34C133.853,263.201,133.942,263.185,133.847,262.799z" style="fill:#202020;"/><path d="M133.491,263.855l0.242-0.717c-0.198-0.11-0.471-0.431-0.136,0.298         C133.395,263.105,133.53,263.472,133.491,263.855z" style="fill:#202020;"/><path d="M133.085,263.932c-0.432-0.013-0.872,0.116-0.702-0.602         C131.631,264.172,132.335,264.776,133.085,263.932z" style="fill:#202020;"/><path d="M128.771,263.212l-0.579-0.019l-0.018,0.577C128.184,263.483,129.049,263.511,128.771,263.212         z" style="fill:#202020;"/><path d="M137.257,262.11c-0.146-0.237-0.618-0.447-0.875-0.693l-0.133,0.518         C136.54,261.941,136.975,261.812,137.257,262.11z" style="fill:#202020;"/><path d="M136.382,261.417l0.199-0.775C136.101,260.962,136.161,261.203,136.382,261.417z" style="fill:#202020;"/><polygon points="133.016,261.615 132.825,263.057 133.165,261.476        " style="fill:#202020;"/><polygon points="139.186,260.583 139.307,261.31 139.201,260.149        " style="fill:#202020;"/><path d="M140.38,259.465c0.125,0.582,0.854,0.461,0.838,0.895c0.284-0.354,0.29-0.945,0.296-1.478         C141.378,259.287,141.042,259.486,140.38,259.465z" style="fill:#202020;"/><path d="M141.581,258.058c-0.06,0.213-0.062,0.508-0.067,0.824         C141.586,258.665,141.622,258.409,141.581,258.058z" style="fill:#202020;"/><path d="M137.519,260.055c0.144,0.098,0.495,0.377,0.892,0.291l-0.688-0.442         C137.661,259.949,137.59,260.001,137.519,260.055z" style="fill:#202020;"/><path d="M137.7,259.89l0.022,0.014c0.227-0.157,0.384-0.266,0.452-0.313         C138.115,259.629,137.972,259.719,137.7,259.89z" style="fill:#202020;"/><path d="M137.467,260.092c0.019-0.014,0.033-0.023,0.052-0.037         C137.452,260.011,137.424,260,137.467,260.092z" style="fill:#202020;"/><path d="M134.769,261.094c0.019-0.576,0.336-1.437-0.675-1.468         C134.22,260.211,134.798,260.227,134.769,261.094z" style="fill:#202020;"/><path d="M136.609,259.537l-0.643,0.295c0.14,0.15,0.425,0.305,0.416,0.591L136.609,259.537z" style="fill:#202020;"/><polygon points="136.713,259.135 136.609,259.537 136.847,259.428        " style="fill:#202020;"/><path d="M140.213,258.234c0.015-0.449,0.248-0.676,0.497-0.949c-0.4,0.129-0.766,0.321-1.063,0.565         C139.759,258.074,139.905,258.521,140.213,258.234z" style="fill:#202020;"/><path d="M138.949,258.985c0.007-0.023,0.016-0.054,0.023-0.076         C138.898,258.884,138.86,258.888,138.949,258.985z" style="fill:#202020;"/><path d="M143.5,255.018c-0.046-0.025-0.087-0.047-0.134-0.073c0.025,0.038,0.046,0.069,0.074,0.112         L143.5,255.018z" style="fill:#202020;"/><path d="M139.504,257.779c-0.323,0.069-0.339,0.328-0.317,0.62c0.121-0.199,0.27-0.387,0.459-0.549         C139.596,257.749,139.553,257.689,139.504,257.779z" style="fill:#202020;"/><path d="M142.129,257.143c-0.222-0.029-0.443-0.026-0.665-0.01         C141.735,257.229,142.215,257.334,142.129,257.143z" style="fill:#202020;"/><path d="M139.184,259.014c-0.003,0.019-0.005,0.038-0.012,0.055         C139.352,259.137,139.291,259.081,139.184,259.014z" style="fill:#202020;"/><path d="M139.184,259.014c0.046-0.183,0.018-0.406,0.003-0.614c-0.1,0.161-0.176,0.33-0.215,0.51         C139.035,258.93,139.116,258.971,139.184,259.014z" style="fill:#202020;"/><path d="M141.191,250.459c0.415,0.592,0.236,1.597-0.77,1.419c-0.168,0.834,1.663,2.401,2.945,3.066         c-0.183-0.257-0.367-0.482-0.111-1.239c-0.432-0.156-1.745,0.234-1.714-0.632c0.459-0.854,0.73-0.266,1.309-0.246         c-0.854-0.463,0.058-1.733-0.928-2.634l-0.315,0.856C141.465,250.901,141.479,250.467,141.191,250.459z" style="fill:#202020;"/><path d="M142.321,255.702l-0.159,0.245c0.326-0.103,0.684-0.023,1.364,0.15         c0.136-0.565,0.042-0.833-0.085-1.04l-1.125,0.788L142.321,255.702z" style="fill:#202020;"/><path d="M141.195,256.739c-0.327-0.745-0.02-1.426-0.873-1.826c-0.599,0.558-0.03,0.869-0.193,1.441         c0.899-0.983-0.018,0.578,1.001,0.321c-0.116,0.267-0.271,0.445-0.421,0.609c0.244-0.075,0.496-0.129,0.755-0.152         c-0.021-0.008-0.037-0.013-0.054-0.019l-0.003,0.006l-0.007-0.011c-0.106-0.04-0.158-0.074-0.072-0.07         c-0.003-0.011,0.007-0.023,0.011-0.03c-0.062-0.09-0.104-0.179-0.141-0.267c0.398-0.116,0.175,0.12,0.141,0.267         c0.021,0.033,0.036,0.067,0.061,0.101l0.01,0.005l0.751-1.167C141.876,256.039,141.619,256.277,141.195,256.739z" style="fill:#202020;"/><path d="M133.575,257.874c0.075,0.027,0.109,0.072,0.147,0.114         C133.728,257.86,133.712,257.789,133.575,257.874z" style="fill:#202020;"/><path d="M134.295,257.898c-0.005,0.145,0.131,0.439-0.162,0.573c-0.358-0.012-0.236-0.292-0.411-0.483         c-0.014,0.28-0.154,0.853,0.543,0.775l0.005-0.142c0.582-0.128,1.729,0.199,1.726,0.342         C135.431,258.515,135.006,258.211,134.295,257.898z" style="fill:#202020;"/><path d="M137.648,257.139l0.609-0.992l-0.863-0.173l0.279,0.298         C137.088,256.543,137.51,256.847,137.648,257.139z" style="fill:#202020;"/><polygon points="143.845,255.241 144.255,255.976 144.008,254.667        " style="fill:#202020;"/><polygon points="144.889,254.262 145.304,254.854 145.321,254.278        " style="fill:#202020;"/><path d="M275.011,114.609l-1.996-1.36C273.938,113.918,274.549,114.327,275.011,114.609z" style="fill:#202020;"/><path d="M288.495,125.639l0.556-0.006C288.3,125.276,287.952,125.179,288.495,125.639z" style="fill:#202020;"/><path d="M341.292,234.366c2.292,2.736,4.669,6.018,4.853,5.123l-0.336-1.292         C343.821,236.76,342.422,235.506,341.292,234.366z" style="fill:#202020;"/><path d="M401.876,212.475c0.21,0.271,0.429,0.554,0.645,0.834c0.831,0.326,1.613,0.633,2.313,0.908         C403.944,213.692,402.935,213.098,401.876,212.475z" style="fill:#202020;"/><path d="M397.896,213.448l-3.264-3.311C395.327,210.931,396.373,212.001,397.896,213.448z" style="fill:#202020;"/><path d="M204.608,140.779l-1.669,2.396C206.343,140.399,204.587,141.304,204.608,140.779z" style="fill:#202020;"/><path d="M226.18,187.643c2.54-1.672,4.488-3.092,6.151-4.398         C229.22,185.196,226.511,186.525,226.18,187.643z" style="fill:#202020;"/><path d="M285.616,112.434c-1.233-0.818-1.823-1.09-1.9-0.927         C284.978,112.359,285.737,112.783,285.616,112.434z" style="fill:#202020;"/><path d="M239.101,177.725c-0.463,0.275-0.894,0.575-1.356,0.866c-1.63,1.5-3.288,2.987-5.414,4.654         C234.631,181.807,237.151,180.021,239.101,177.725z" style="fill:#202020;"/><path d="M104.868,275.057c0.035,0.021,0.064,0.025,0.102,0.053         C104.916,275.017,104.891,275.023,104.868,275.057z" style="fill:#202020;"/><path d="M119.977,273.078c-0.072,0.122-0.24,0.26-0.391,0.397         C119.697,273.454,119.823,273.345,119.977,273.078z" style="fill:#202020;"/><path d="M175.281,229.939C173.564,231.406,175.06,230.233,175.281,229.939L175.281,229.939z" style="fill:#202020;"/><path d="M164.8,234.453c0.316-0.372,0.527-0.689,0.456-0.866         C165.231,233.851,165.064,234.144,164.8,234.453z" style="fill:#202020;"/><path d="M254.66,162.012c0.066-0.002,0.12-0.003,0.197-0.005         C254.171,161.879,254.288,161.904,254.66,162.012z" style="fill:#202020;"/><path d="M172.422,231.807c0.718-0.46,1.526-1.014,2.386-1.641         C174.407,230.412,173.679,230.907,172.422,231.807z" style="fill:#202020;"/><path d="M173.012,231.808c-0.622,0.468-1.112,0.836-1.578,1.187         C171.296,233.276,171.544,233.182,173.012,231.808z" style="fill:#202020;"/><path d="M177.692,227.92c-0.993,0.825-1.951,1.557-2.885,2.245c0.377-0.239,0.55-0.321,0.474-0.226         C175.789,229.515,176.504,228.915,177.692,227.92z" style="fill:#202020;"/><path d="M78.611,239.718c-0.131,0.075-0.275,0.171-0.422,0.248c-0.395,0.425-0.645,0.704-0.7,0.817         c-0.085,0.129-0.092,0.159-0.04,0.113c0.07-0.055,0.121-0.145,0.353-0.367C78.02,240.312,78.298,240.032,78.611,239.718z" style="fill:#202020;"/><path d="M392.011,265.12c-0.087-0.061-0.144-0.08-0.224-0.134c0.076,0.074,0.172,0.166,0.241,0.232         L392.011,265.12z" style="fill:#202020;"/><path d="M398.666,269.787c-3.297-1.42-4.742-2.754-6.638-4.568l0.64,3.46L398.666,269.787z" style="fill:#202020;"/><path d="M245.671,106.586l4.864-3.043c-4.594,5.242-8.704,8.068-3.928,5.468         c-0.234-0.606,0.712-1.794,2.248-3.274c0.384-0.37,0.804-0.757,1.253-1.159c0.225-0.199,0.457-0.403,0.692-0.612l0.325-0.279         l0.172-0.138c0.459-0.378,1.098-0.715,1.832-0.939c1.479-0.467,3.222-0.4,4.404-0.193c1.198,0.189,1.997,0.392,2.458-0.026         c0,0,0.093,0.106,0.232,0.266c0.242,0.26,0.565,0.606,0.889,0.953c0.646,0.693,1.292,1.386,1.292,1.386         c-0.819-0.698-1.045-0.693-1.854-1.383c4.915,5.524,5.334,2.034,12.407,8.241c2.423,2.215,3.971,3.937,2.053,2.754         l6.051,4.133c1.618,1.378,0.944,1.383-0.667,0.012l8.766,6.875l-0.109,0.004c1.477,0.702,4.649,2.509,6.173,3.421         c1.973,2.06-1.267-0.693-0.898,0.003l5.162,3.427c1.545,2.082-2.813-0.661-6.06-3.42c2.911,5.549,4.362,2.747,13.096,11.708         l-4.715-3.43c2.027,3.456,5.875,5.929,10.43,10.762c-0.924-1.34-8.835-10.026-3.254-6.281         c1.346,1.335,3.218,2.973,6.333,4.866c-0.528,0.703,2.342,2.76,5.797,5.505l-0.969,0.713c3.912,2.75,3.993,2.051,6.501,3.417         c4.052,3.444,4.338,4.839,4.829,6.218c6.487,5.516-3.647-4.832,4.307,1.357c5.211,4.814,9.368,7.583,16.379,12.388         c3.591,3.438-1.122,0.005,0.046,1.385l3.994,2.052c0.82,0.696,0.37,0.698,0.144,0.699c3.098,2.056,0.971-0.71,5.684,2.717         c2.026-0.004,8.085,8.993,14.591,12.409c1.168,1.376-1.115,0.012-0.979,0.705c8.268,5.495,7.009,4.808,14.113,8.93         l4.879,4.955c-3.387-3.883,2.298-0.59,7.243,2.337c-1.13-1.464-2.091-2.722-2.781-3.51l7.43,5.239         c0.729,0.84-0.231,0.574-1.691,0.013c0.541,0.315,1.056,0.612,1.466,0.832c2.244,2.381,0.517,1.841-1.697,0.879         c-0.703-0.885-1.401-1.763-2.081-2.618c-2.185-0.866-4.304-1.581-4.372-0.758c0.542,0.268,1.495,0.895,2.504,1.632         c-0.575-0.22-0.974-0.324-0.836-0.063c0.161,0.29,1.058,0.688,2.396,1.393l0.781,2.308l0.713-0.084l8.692,8.119         c3.705,2.172,7.294,4.051,11.305,6.397c2.005,1.173,4.116,2.463,6.4,3.966c1.142,0.751,2.327,1.555,3.564,2.425         c1.228,0.837,2.39,1.886,3.184,3.365c-0.597-0.619-1.016-0.855-1.315-0.897c-0.293-0.046-0.443,0.086-0.556,0.281         c-0.203,0.391-0.313,1.025-0.841,1.262c-0.097-0.709-0.534-1.473-1.271-2.093c-0.97-0.805-2.12-1.621-3.37-2.479         c-2.5-1.717-5.396-3.603-8.027-5.9c2.747,2.397,1.787,2.309,0.95,1.869l10.287,6.984c-0.382,0.302-0.117,0.691,0.25,1.293         c0.36,0.598,0.876,1.456,0.938,2.482c0.336-0.49,0.672-0.455,1.016,0.078c0.331,0.522,0.595,1.554,0.474,2.767         c-0.101,1.223-0.65,2.524-1.477,3.63c-1.082,1.408-2.095,2.755-2.787,3.826c-0.336-0.071-0.434-0.441,0.056-1.38         c0.244-0.47,0.636-1.082,1.217-1.871c0.286-0.375,0.609-0.798,0.974-1.276c0.252-0.336,0.519-0.718,0.76-1.177         c-0.185,0.228-0.413,0.406-0.568,0.607c-0.2,0.186-0.348,0.334-0.527,0.547c-0.484,0.535-0.888,1.062-1.237,1.584         c-0.698,1.044-1.18,2.068-1.653,3.094c-0.947,2.05-1.864,4.105-4.432,6.333c0.942-1.18,1.529-1.752,1.665-2.41         c-1.805,3.077-7.586,9.489-6.718,7.579l0.941-1.175c-1.624,1.908-3.642,4.34-5.751,6.948         c-0.524,0.653-1.058,1.316-1.594,1.983c-0.295,0.384-0.471,0.557-0.668,0.794c-0.201,0.223-0.43,0.419-0.65,0.623         c-0.931,0.75-2.036,1.324-3.199,1.549c-1.154,0.239-2.332,0.24-3.37-0.011c-1.051-0.238-1.938-0.652-2.726-1.132         c-1.921-1.266-3.321-2.018-3.856-1.954c0.05-0.217,2.197-0.615,2.865-0.475l-17.153-7.264         c2.062-0.035-0.626-6.311,6.292-1.642c-1.73-1.654-3.88-3.69-8.076-6.507c1.143,1.176,1.931,4.055,0.13,2.743         c-3.799-5.006-2.786-3.293-7.824-9.026c1.711,1.762-1.708,1.666-4.655-0.822c0.664,0.139,1.051-1.798,2.281-1.076         l-8.734-4.477c2.091,1.228,1.424-1.077,0.124-2.883c0.52,0.94-6.409-5.271-8.521-6.729l2.854,2.937         c-8.206-7.085-10.117-4.531-18.384-11.405c1.275,0.494,4.135,0.013,0.059-3.641c-2.604-0.771-11.786-3.101-19.671-8.484         L320.334,214l-6.09-4.081c4.52,1.648,16.504,7.131,22.719,10.529c-2.844-2.929-0.43-1.26-5.172-5.056         c-1.309-1.791,3.104,1.431,4.511,2.534l-10.733-9.213c-0.286,1.347-9.159-5.88-9.385-4.748l12.708,8.718         c-0.289,1.34-9.079-2.917-16.71-9.414c-1.668-1.988,2.854-0.484,2.949-0.932c-1.274-0.495-7.88-5.383-8.405-6.196         l3.708,2.177c-4.033-3.879-8.081-4.492-12.54-9.631c-1.745-1.522-4.36-5.585-5.129-5.276c2.044,3.466-0.111,7.28-2.725,6.504         c-0.569-0.585-8.575-8.708-10.188-10.911c-2.262-3.255,6.083,1.59,4.162-1.188c-0.319,0.171-2.212-0.838-2.976-1.29         c-1.703-1.756,1.434-0.167-2.755-3.385c-1.466,0.406-8.258-6.864-2.597-0.763c-4.228-2.987-4.094-3.664-8.829-7.453         c0.494,0.92-0.991,0.589-3.131-0.346c-1.08-0.493-2.403-1.033-3.751-1.29c-1.351-0.282-2.725-0.366-3.943-0.354         c0.32-0.29-0.785-0.791-1.374-0.923c-2.667,0.088-5.009,0.864-6.852,2.121c-1.792,1.292-3.358,2.521-4.963,3.71         c-3.182,2.392-6.287,4.737-10.117,7.851c-0.896,0.342-4.817,3.07-3.582,1.374c-0.962,1.067-1.707,2.217-4.049,4.164         c-5.245,2.891,5.158-4.417,0.861-2.579c0.158,0.801-5.476,5.745-8.553,8.834c1.738,0.021,7.902-6.165,10.985-9.256         c0.985,1.177-3.859,7.201-11.409,14.269c-6.115,5.475-3.383,1.477-4.348,2.545c-12.109,9.521-8.478,10.368-19.093,17.588         c-4.552,2.447-1.407-1.365-2.725-1.201c4.944-4.507,8.342-5.996,11.828-8.887l-4.614,3.163         c1.442-1.595,4.742-4.603,6.805-5.917c-3.853,2.005-20.278,16.306-30.003,23.184c-1.429,1.589-4.04,4.154-2.455,3.37         l2.829-2.481c3.177-1.571-4.797,5.316-0.875,2.595c-3.56,3.617-7.392,7.864-13.178,12.003l-1.739-0.022         c0.324,0.157,4.018-2.416,5.35-3.941c-1.981,2.253-9.394,5.707-10.985,8.889l4.348-2.545         c-3.572,3.634-7.676,8.506-12.776,12.208c2.916-0.955,1.044-1.014,5.326-2.839c-4.018,1.205,12.521-10.117,6.629-7.49         c4.502-1.738,6.557-4.524,12.013-7.324c-0.376-0.168-2.092,0.797,2.118-2.4c0.117-0.234,0.467-0.695,0.693-0.983         c0.133-0.093,0.18-0.125,0.294-0.205c-0.092,0.055-0.162,0.096-0.253,0.15c0.142-0.187,0.15-0.208-0.094,0.058         c-1.077,0.67-1.989,1.164-2.44,1.266c1.499-2.311,8.028-7.598,9.953-9.731c2.541-1.844-0.749,1.156,0.826,0.379l2.876-3.188         c0.843,0.369,7.314-4.208,1.892,0.828l5.176-4.171c3.322-2.116,7.61-5.375,9.966-7.739c2.542-1.843,5.566-5.703,3.854-3.482         l7.761-6.977l0.204,0.098c8.038-6.417,15.557-14.424,25.604-20.708c2.554-2.347,5.168-4.803,9.806-8.282l1.321-0.165         c0.412-0.375,0.889-0.779,1.411-1.204c0.129-0.103,0.26-0.208,0.393-0.314l0.229-0.152c0.143-0.114,0.317-0.207,0.5-0.296         c0.714-0.374,1.632-0.624,2.543-0.708c0.915-0.08,1.799-0.017,2.493,0.076c0.689,0.106,1.225,0.167,1.541,0.106         c0.246,0.345,0.579,0.674,0.882,1.044c0.189,0.172,0.266,0.352,0.497,0.565c0.383,0.377,0.795,0.767,1.233,1.167         c1.753,1.6,3.915,3.366,6.182,5.153c4.532,3.574,9.481,7.236,12.406,9.835l0.812-0.53c4.14,3.44,8.306,6.497,13.719,10.429         l0.196-0.892c4.889,3.119,11.113,9.802,18.228,15.491c-0.677-0.149-2.416-1.672-3.565-2.851         c7.273,8.304,18.648,13.465,25.452,20.741c2.095,1.323,3.411,2.527,4.618,3.775c-0.178-0.143-0.347-0.261-0.499-0.352         c0.188,0.167,0.478,0.404,0.776,0.646c0.753,0.794,1.518,1.628,2.374,2.494c-0.673-0.804-1.334-1.554-1.951-2.154         c1.48,1.185,3.774,2.924,6.09,4.547l0.378,1.438c0.183,0.138,0.331,0.249,0.521,0.393c1.941,1.999,1.986,1.083,1.259-0.36         c1.191,0.786,2.31,1.473,3.226,1.947c0.849,2.516,6.036,4.304,7.462,7.412c1.938,0.63,11.341,8.526,13.483,8.276         c-0.053,0.216,0.53,0.816-0.658-0.136c2.326,2.123,4.65,4.244,7.111,5.688l0.331,1.706l6.268,3.176         c2.804,3.162,3.894,4.56,0.142,2.608c8.584,5.295,6.603,4.74,14.02,9.102l-0.776,0.296c0.594,0.476,1.312,0.977,2.072,1.486         c0.336,0.232,0.868,0.564,1.356,0.858c0.51,0.27,1.021,0.535,1.545,0.732c2.095,0.836,4.093,0.985,5.201,1.271         c1.03,0.174,2.516,0.21,4.25-0.273c1.715-0.482,3.719-1.474,5.379-3.242c0.196-0.209,0.439-0.464,0.6-0.65         c0.156-0.184,0.314-0.368,0.474-0.556c0.318-0.376,0.644-0.76,0.976-1.152c0.659-0.79,1.346-1.611,2.055-2.46         c1.406-1.707,2.902-3.522,4.451-5.402c3.091-3.766,6.39-7.791,9.667-11.671c0.41-0.484,0.819-0.966,1.228-1.447l0.611-0.717         c0.107-0.128,0.191-0.216,0.318-0.378l0.377-0.49c0.998-1.311,1.744-2.803,2.199-4.351c0.932-3.105,0.664-6.387-0.45-9.162         c0.011,0.633-0.087,0.934-0.197,0.99c-0.113,0.055-0.232-0.141-0.423-0.491c-0.339-0.712-0.918-2.086-1.917-3.449         c-0.255-0.334-0.508-0.691-0.814-1c-0.28-0.303-0.646-0.684-0.843-0.874c-0.463-0.458-0.922-0.891-1.35-1.254         c-0.856-0.727-1.588-1.172-1.981-0.962c-0.472-1.03-2.18-2.786,0.288-1.34c-7.221-5.239-9.879-9.063-15.524-11.869         c-0.474-1.035,1.943,0.632,1.428-0.171c-0.623-0.367-2.472-1.447-3.001-2.265c-0.515-0.804,1.277,0.497,2.51,1.216         c-7.112-5.677-8.802-5.058-10.231-4.35c-3.144-3.443-4.989-4.819-8.173-6.182c-0.945-1.382-2.709-3.458,1.784-0.021         c-2.424-2.062-14.634-12.803-15.619-12.104c-0.587-0.858-3.395-2.872-4.128-3.297c-5.492-4.558-5.914-5.036-11.42-9.373         l1.388,1.374c-3.032-0.658-4.717-3.434-9.206-6.869l0.217-0.009c-9.411-8.961-4.646-3.154-13.831-12.116l-0.012,1.116         c-2.108,0.704-8.085-8.005-14.292-12.13l1.763,2.077c-3.549-2.059-7.173-9.127-10.181-11.876         c-0.585-0.687,1.251,0.68,2.288,1.368c-7.564-7.581-1.793,0.016-8.118-4.787c-0.746-1.402,2.453-0.026-1.619-3.486         c-1.749-2.067-13.283-8.224-18.192-13.741c0.946,1.382,1.885,2.756-1.202,0.707c-4.49-3.433-10.718-11.032-15.623-13.091         c-0.475-0.554-0.607-0.821-0.556-0.932c-3.595-2.426-11.296-8.359-13.827-9.371c-0.299-1.215-1.808-2.81-3.875-4.552         c-0.261-0.215-0.528-0.436-0.801-0.66l-0.209-0.168l-0.282-0.208l-0.578-0.413c-0.789-0.532-1.656-0.966-2.555-1.331         c-1.81-0.701-3.76-1.01-5.637-0.992c-3.778,0.008-7.197,1.444-9.382,3.026c-0.492,0.354-0.94,0.677-1.337,0.963         c-0.364,0.25-0.694,0.449-0.983,0.587c-0.578,0.278-0.995,0.315-1.205,0.038l-10.212,8.501l0.09-0.44         c-6.705,5.217-8.613,7.629-10.508,10.032c-1.642,1.092-0.694-0.014-0.661-0.229c-9.98,7.396-10.863,8.268-18.06,15.907         l-1.409-0.017c-1.857,2.187-14.81,10.226-23.587,18.723c0.028-0.154,0.113-0.449,0.782-1.158         c-9.954,9.464-27.01,18.748-28.829,24.463l-6.499,6.331c9.23-7.18-0.451,2.205,3.625-0.407         c-3.445,3.051-9.846,6.733-5.57,3.036l0.79-0.43c0.529-2.638-11.653,8.698-12.145,7.595         c-17.792,14.583-35.784,27.999-52.546,41.542l2.766-0.534l-5.879,4.685c-0.445,0.268-0.785,0.394-1.118,0.543         c-0.319,0.135-0.5,0.139-0.446-0.054c0.027-0.097,0.114-0.243,0.274-0.444c0.127-0.166,0.291-0.349,0.529-0.585         c0.471-0.467,1.195-1.103,2.244-1.938c-0.666,0.298-1.41,0.833-2.15,1.472c-0.182,0.163-0.367,0.329-0.554,0.497l-0.275,0.26         l-0.365,0.37c-0.495,0.483-0.914,1.03-1.286,1.568c-1.478,2.206-1.699,4.354-1.59,4.468         c-0.606,1.551-0.822,2.726-0.936,3.505c-0.138,0.782-0.173,1.183-0.261,1.29c-0.161,0.218-0.42-0.754-0.438-2.089         c-0.04-1.334,0.313-2.979,0.632-3.996c0.346-1.006,0.485-1.442-0.018-0.404c0,0-0.661,1.428-0.936,2.961         c-0.304,1.524-0.271,3.077-0.271,3.077c-0.028-0.005,0.215-1.377,0.215-1.377c0.108,2.492,0.649,3.763,1.341,5.387         c0.192,0.401,0.375,0.833,0.642,1.285c0.24,0.465,0.539,0.952,0.903,1.489c0.167,0.278,0.387,0.541,0.607,0.83         c0.111,0.144,0.227,0.291,0.345,0.443c0.099,0.118,0.201,0.24,0.306,0.365c0.4,0.49,0.85,1.039,1.359,1.663         c2.37,3.33,0.685,2.14,1.659,3.417c-0.079,0.052,0.229,0.501,1.526,1.934l5.893,7.414l-1.577-3.6         c3.053,2.927,5.582,6.938,3.745,2.798c0.328,0.768,0.915,1.776,1.695,2.963c0.39,0.593,0.828,1.23,1.306,1.903         c0.241,0.335,0.49,0.681,0.746,1.036c0.117,0.161,0.235,0.324,0.355,0.489l0.034,0.091c0.19,0.481,0.525,0.96,0.883,1.405         c0.717,0.891,1.531,1.649,1.478,2.035c0.255,0.016,0.552,0.132,0.795,0.245c0.247,0.117,0.464,0.256,0.666,0.416         c0.439,0.283,0.792,0.691,1.252,1.076c-0.11-0.355,0.517-1.356,1.166-0.701c-0.845,0.889-0.637,1.396-0.16,1.868         c0.457,0.509,1.146,0.898,1.238,1.907c-0.156-0.691,0.615-0.457,1.336-0.359c0.741,0.079,1.389,0.019,1.018-0.918         c0.778,0.391-0.172,0.907,0.384,1.614c1.173-0.272,2.293-0.021,3.602,0.113c1.283,0.123,2.76,0.127,4.029-0.541         c-0.088-0.312-0.666-0.612-0.326-1.258c0,0,0.458,0.233,0.958,0.442c0.501,0.219,1.024,0.378,1.024,0.379         c0.429-0.447-0.499-1.807,0.905-1.431c-0.269-0.138-0.652-0.361-0.435-0.645c0.307-0.104,0.625-0.236,0.907-0.369         c0.236-0.108,0.464-0.229,0.684-0.357c0.44-0.26,0.852-0.558,1.246-0.88c0.788-0.644,1.508-1.382,2.257-2.087         c1.497-1.412,3.109-2.695,5.61-2.843c-0.819-0.134-0.573-0.413-0.262-0.696c-0.306,0.058-0.495-0.617-0.811-0.919         l2.081-0.142c-0.521-1.129,1.362-1.216,0.773-2.221l-0.287,0.502c-0.303-1.507-2.686-1.708-3.706-3.125         c0.354,1.704-3.085-0.437-2.709,2.109c-0.45-0.093-0.163-0.593-0.539-0.808c0.213,0.79,0,1.166-0.792,1.378l-0.051-0.197         c-1.511,1.467-2.674,1.465-4.812,2.573l0.68,0.558c-0.465,0.231-0.719,0.089-1.04,0.071c0.375,1.381,1.149-0.842,1.65,0.61         c-1.629-0.936-2.786,2.235-4.397,0.978c-0.437,0.308,0.735,0.702,0.303,1l-0.424-0.357l0.293,0.649         c-0.365,0.104-0.852-0.413-1.079-0.802c0.087,0.011,0.105-0.21,0.146-0.277c-0.333-0.191-0.481,0.005-0.646,0.174         c-0.148,0.19-0.272,0.427-0.372,0.339c0,0,0.13,0.057,0.255,0.083c0.129,0.03,0.259,0.061,0.259,0.061         c-0.459,0.492-1.188,0.653-1.89,0.738c-0.718,0.082-1.399,0.111-2.197,0.477l0.009,0.422         c-0.647,0.246-0.85,0.014-1.016-0.204c-0.167-0.248-0.301-0.516-0.902-0.665l0.086-0.061         c-0.411,0.239-0.826,0.22-1.075-0.038c0.519-0.207,0.125-1.062,0.758-1.243c-0.637-0.035-0.884-0.019-1.112,0.081         c-0.245,0.095-0.495,0.313-1.377,0.47c0,0,0.095-0.146,0.189-0.292c0.09-0.155,0.181-0.311,0.181-0.311         c-0.715,0.088-0.985,0.267-1.663-0.29c0.895,0.181,0.45-1.075,1.543-0.946c0.002-1.166-0.71-1.45-1.279-1.693         c-0.285-0.122-0.533-0.233-0.639-0.44c-0.053-0.103-0.07-0.229-0.038-0.394c0.008-0.041,0.019-0.084,0.033-0.13l0.024-0.07         l-0.129-0.27c-0.171-0.364-0.327-0.736-0.465-1.121c-1.337-0.902-1.597-0.748-1.273-0.048         c0.162,0.351,0.47,0.837,0.862,1.396c0.099,0.139,0.203,0.283,0.309,0.433l0.081,0.111l0.006,0.019l0.014,0.038         c0.021,0.05,0.045,0.1,0.072,0.147c0.217,0.387,0.604,0.691,0.303,0.638c-0.114,0.344-0.492,0.432-0.869,0.364         c-0.188-0.034-0.376-0.107-0.53-0.206c-0.039-0.025-0.075-0.052-0.108-0.079c-0.191-0.226-0.38-0.448-0.564-0.666         c-0.393-0.476-0.757-0.936-1.072-1.359c-2.681-3.357-2.762-7.173-9.615-15.529c0.673,0.839,0.828,0.807,1.499,1.644         c-1.092-1.719-2.469-3.153-3.889-4.699c-0.351-0.39-0.707-0.785-1.069-1.187c-0.209-0.232-0.286-0.346-0.399-0.49         c-0.111-0.14-0.225-0.281-0.303-0.446c-0.37-0.621-0.603-1.371-0.551-2.168c-0.738-0.756-0.684-1.952-0.473-2.836         c0.214-0.905,0.482-1.591,0.038-2.207c0,0-0.056,0.103-0.154,0.282c-0.073,0.193-0.199,0.457-0.315,0.787         c-0.238,0.659-0.414,1.588-0.404,2.511c0.001,0.926,0.21,1.825,0.438,2.46c0.127,0.314,0.22,0.579,0.325,0.748         c0.089,0.174,0.141,0.274,0.141,0.274c-0.529-0.866-0.963-1.822-1.204-2.921c-0.23-1.09-0.294-2.342,0.082-3.625         c0.381-1.292,1.078-2.572,2.446-3.68c1.431-1.227,3.063-2.493,4.987-3.795c-0.376,0.681-2.271,2.715-3.605,4.076         c2.368-1.379,3.866-3.508,6.319-4.941c0.145,0.812-2.143,2.773-4.963,5.114c-0.353,0.292-0.713,0.591-1.079,0.894         l-0.551,0.458c-0.199,0.162-0.251,0.236-0.387,0.356c-0.468,0.432-0.861,0.944-1.139,1.502         c-0.604,1.093-0.693,2.359-0.445,3.271c0.169-0.439,0.239-1.061,0.402-1.733c0.153-0.672,0.421-1.379,0.766-1.925         c0.156-0.284,0.355-0.506,0.513-0.698c0.184-0.17,0.33-0.298,0.454-0.363c0.185-0.103,0.299-0.111,0.326,0.003         c0.031,0.11-0.079,0.383-0.069,0.651c0.022-0.103,0.015-0.185,0.074-0.305l0.234-0.385c0.164-0.253,0.342-0.5,0.535-0.741         c0.384-0.483,0.823-0.944,1.304-1.396c0.962-0.903,2.096-1.766,3.311-2.676c2.43-1.82,5.184-3.829,7.544-6.727l0.17,0.975         c0.813-0.836,2.417-2.667,4.084-3.996l-2.287,3.305c3.993-4.48,9.388-6.561,13.469-10.551         c-9.214,7.531-2.729,0.879-7.03,3.564c10.656-10.159,7.974-3.574,20.458-14.265c-1.648,1.498-6.806,4.868-4.36,2.362         c2.539-1.836,5.953-4.186,7.728-5.046c8.332-7.01-1.857,0.366,1.403-2.97c3.54-1.523,3.876-3.706,7.366-6.98l0.58,0.661         c9.979-7.393,1.397-3.496,10.49-10.016l-2.893,3.923l4.318-3.918l-0.302,1.533c4.448-4.572,6.099-5.669,11.09-9.369         c-1.51,0.431-0.376-1.748,3.869-5.237c3.236-1.96-1.102,1.972,4.861-3.041c-1.017,1.536-2.076,3.286-5.216,4.797         c-0.089,0.442-0.998,1.522-1.097,1.967c3.508-2.082,7.954-6.294,10.137-8.081c-0.863,0.66-1.899,1.442-2.495,1.765         l7.991-8.069c1.587-0.866,0.66,0.229-0.26,1.312c1.714-1.517,2.687-2.828,5.249-5.009c-0.225,1.103,0.401,1.542-3.079,4.807         l7.845-7.404c0.753-0.212,4.821-2.823,3.903-1.737c4.892-3.439,10.475-10.308,16.959-14.869         c0.231-0.366,0.787-0.989,2.027-2.129c5.866-4.564,11.526-8.04,17.741-14.358l4.685-2.162c5.168-4.579-6.266,3.02,2.34-4.603         c6.051-5.45,3.043-1.069,5.481-2.594c1.366-1.526,3.205-3.654,5.509-5.887c1.152-1.117,2.42-2.261,3.804-3.369         c0.692-0.554,1.413-1.1,2.162-1.628c0.379-0.258,0.761-0.519,1.146-0.78l0.587-0.378l0.388-0.167l-0.19,0.189l-0.253,0.231         c-0.22,0.196-0.435,0.388-0.646,0.577c-0.428,0.371-0.85,0.717-1.272,1.056C247.376,105.167,246.537,105.82,245.671,106.586z          M308.868,141.708c-1.395-0.897-4.304-2.53-4.912-3.692C306.047,138.42,306.871,139.71,308.868,141.708z M410.527,221.688         c-1.133-0.548-2.514-1.855-3.963-3.463C407.814,219.148,409.157,220.283,410.527,221.688z M194.008,213.757         c0.045-0.055,0.077-0.094,0.109-0.144C197.184,211.555,196.088,212.275,194.008,213.757z M187.848,218.286         c-0.518,0.581-0.4,0.642-0.071,0.532c0.273-0.509,1.592-1.604,3.146-2.79C190.356,216.193,189.492,216.693,187.848,218.286z          M76.393,260.482l-0.761-1.297C77.947,261.629,77.176,261.044,76.393,260.482z" style="fill:#202020;"/><path d="M398.395,213.366c-0.269-0.41-0.266-0.619-0.246-0.815         C397.552,212.256,397.435,212.38,398.395,213.366z" style="fill:#202020;"/><path d="M204.918,140.336l-0.207,0.154c-0.077,0.131-0.103,0.22-0.103,0.288L204.918,140.336z" style="fill:#202020;"/><path d="M281.95,175.55c1.139,1.091,1.718,1.77,2.064,2.266         C284.217,177.704,283.776,177.112,281.95,175.55z" style="fill:#202020;"/><path d="M157.421,245.006l3.648-3.268c-1.808,1.529-2.583,1.914-3.598,2.56         C157.686,244.388,158.597,244.028,157.421,245.006z" style="fill:#202020;"/><path d="M139.532,252.574c-0.006,0.144-0.15,0.138-0.155,0.282l0.278,0.299         C139.955,252.877,139.969,252.442,139.532,252.574z" style="fill:#202020;"/><path d="M152.068,245.605c-0.768-0.329-2.987,1.804-5.557,4.075c0.157-0.132,0.305-0.26,0.469-0.383         C146.851,250.736,149.465,248.165,152.068,245.605z" style="fill:#202020;"/><path d="M145.911,250.201c-0.402,0.343-0.808,0.689-1.212,1.033l-0.615,0.501l-0.292,0.23         l-0.047,0.024c0.055,0.089,0.094,0.13,0.124,0.14c0.015,0.004,0.028,0,0.039-0.01c0.067-0.062,0.148-0.135,0.24-0.219         C144.591,251.484,145.214,250.836,145.911,250.201z" style="fill:#202020;"/><path d="M180.649,224.784c-1.38,0.879-0.194,1.376-1.097,1.724         C178.739,228.383,187.232,218.782,180.649,224.784z" style="fill:#202020;"/><polygon points="148.38,245.471 149.908,245.401 150.932,243.619        " style="fill:#202020;"/><path d="M169.775,228.899l-4.404,3.263c0.161,0.066-0.321,0.575-0.94,1.167         C167.065,231.222,170.045,229.027,169.775,228.899z" style="fill:#202020;"/><path d="M164.431,233.33c-1.374,1.096-2.657,2.167-3.32,2.9         C161.842,235.623,163.408,234.307,164.431,233.33z" style="fill:#202020;"/><polygon points="154.009,240.53 155.384,239.655 158.423,237.265        " style="fill:#202020;"/><path d="M215.51,191.857l4.467-3.977c0.275-0.627-1.109,0.253-2.754,1.755         C216.251,190.708,214.608,192.202,215.51,191.857z" style="fill:#202020;"/><path d="M199.924,201.336c1.372-0.874,1.585-0.785,2.48-1.127l-0.573-0.991L199.924,201.336z" style="fill:#202020;"/><path d="M213.265,190.124c0.264-0.62,6.155-6.176,0.329-1.337         C213.32,189.411,208.846,193.394,213.265,190.124z" style="fill:#202020;"/><polygon points="287.154,183.788 285.967,182.84 284.966,184.415        " style="fill:#202020;"/><path d="M351.475,230.475c-5.209-4.817-2.026-0.176-6.636-4.648c-1.565-0.709,3.769,3.655,2.207,2.872         C350.651,231.04,352.226,232.66,351.475,230.475z" style="fill:#202020;"/><path d="M347.046,228.698c-0.577-0.376-1.195-0.765-1.868-1.16         C346.21,228.231,346.718,228.53,347.046,228.698z" style="fill:#202020;"/><polygon points="122.341,272.436 123.06,272.349 122.36,272.115        " style="fill:#202020;"/><path d="M122.383,270.629l0.858,0.824l-0.391-1.061C122.776,270.521,122.632,270.769,122.383,270.629z         " style="fill:#202020;"/><path d="M317.178,151.536l0.449-0.001c-0.353-0.683-1.165-1.374-2.791-2.758L317.178,151.536z" style="fill:#202020;"/><polygon points="269.831,111.887 270.64,112.576 269.773,110.494        " style="fill:#202020;"/><path d="M234.823,118.365c1.669-1.301,3.447-3.055,5.124-4.36         C236.492,117.064,233.538,117.693,234.823,118.365z" style="fill:#202020;"/></g></g></g></g></g></g></g><g id="Layer_1"/></svg>